<mxfile host="app.diagrams.net" modified="2022-05-11T15:48:22.796Z" agent="5.0 (Macintosh; Intel Mac OS X 10_15_7) AppleWebKit/537.36 (KHTML, like Gecko) Chrome/101.0.4951.54 Safari/537.36" etag="WF53siDjNGUVyiBGxqyA" version="18.0.2" type="github" pages="6">
  <diagram name="设备管理E-R图" id="efa7a0a1-bf9b-a30e-e6df-94a7791c09e9">
    <mxGraphModel dx="1428" dy="896" grid="1" gridSize="10" guides="1" tooltips="1" connect="1" arrows="1" fold="1" page="1" pageScale="1" pageWidth="826" pageHeight="1169" background="none" math="0" shadow="0">
      <root>
        <mxCell id="0" />
        <mxCell id="1" parent="0" />
        <mxCell id="22" value="&lt;p style=&quot;margin: 0px; margin-top: 4px; text-align: center; text-decoration: underline;&quot;&gt;&lt;b&gt;department_info(组织表)&lt;/b&gt;&lt;/p&gt;&lt;hr&gt;&lt;p style=&quot;margin: 0px 0px 0px 8px;&quot;&gt;dempartment_id&lt;/p&gt;&lt;p style=&quot;margin: 0px 0px 0px 8px;&quot;&gt;tenant_id：所属租户&lt;/p&gt;&lt;p style=&quot;margin: 0px 0px 0px 8px;&quot;&gt;department_name：部门名称&lt;/p&gt;&lt;p style=&quot;margin: 0px 0px 0px 8px;&quot;&gt;level：部门层级&lt;/p&gt;&lt;p style=&quot;margin: 0px 0px 0px 8px;&quot;&gt;parent_id：上级组织&lt;/p&gt;&lt;p style=&quot;margin: 0px 0px 0px 8px;&quot;&gt;&lt;br&gt;&lt;/p&gt;" style="verticalAlign=top;align=left;overflow=fill;fontSize=12;fontFamily=Helvetica;html=1;strokeColor=#003366;shadow=1;fillColor=#D4E1F5;fontColor=#003366" parent="1" vertex="1">
          <mxGeometry x="30" y="560" width="190" height="180" as="geometry" />
        </mxCell>
        <mxCell id="29" value="&lt;p style=&quot;margin: 0px; margin-top: 4px; text-align: center; text-decoration: underline;&quot;&gt;&lt;b&gt;camera_info(摄像机信息表)&lt;/b&gt;&lt;/p&gt;&lt;hr&gt;&lt;p style=&quot;margin: 0px; margin-left: 8px;&quot;&gt;camera_id&lt;/p&gt;&lt;p style=&quot;margin: 0px; margin-left: 8px;&quot;&gt;device_type: 设备类型&lt;/p&gt;&lt;p style=&quot;margin: 0px; margin-left: 8px;&quot;&gt;device_model: 设备型号&lt;/p&gt;&lt;p style=&quot;margin: 0px; margin-left: 8px;&quot;&gt;&lt;span style=&quot;background-color: initial;&quot;&gt;vc_device_id: 视频云设备Id&lt;/span&gt;&lt;/p&gt;&lt;p style=&quot;margin: 0px; margin-left: 8px;&quot;&gt;vc_valide_code: 视频云设备验证吗码&lt;/p&gt;&lt;p style=&quot;margin: 0px; margin-left: 8px;&quot;&gt;ai_platform_device_id：AI平台设备Id&lt;/p&gt;&lt;p style=&quot;margin: 0px; margin-left: 8px;&quot;&gt;org_id: 所属组织&lt;/p&gt;&lt;p style=&quot;margin: 0px; margin-left: 8px;&quot;&gt;&lt;span style=&quot;background-color: initial;&quot;&gt;sub_account_id: 子账号Id&lt;/span&gt;&lt;br&gt;&lt;/p&gt;" style="verticalAlign=top;align=left;overflow=fill;fontSize=12;fontFamily=Helvetica;html=1;strokeColor=#003366;shadow=1;fillColor=#D4E1F5;fontColor=#003366" parent="1" vertex="1">
          <mxGeometry x="700" y="280" width="250" height="200" as="geometry" />
        </mxCell>
        <mxCell id="32" value="&lt;p style=&quot;margin: 0px; margin-top: 4px; text-align: center; text-decoration: underline;&quot;&gt;&lt;strong&gt;sub_account_info(视频云账号表)&lt;/strong&gt;&lt;/p&gt;&lt;hr&gt;&lt;p style=&quot;margin: 0px; margin-left: 8px;&quot;&gt;account_id: 账号Id&lt;/p&gt;&lt;p style=&quot;margin: 0px; margin-left: 8px;&quot;&gt;&lt;span style=&quot;background-color: initial;&quot;&gt;org_id: 所属组织&lt;/span&gt;&lt;br&gt;&lt;/p&gt;&lt;p style=&quot;margin: 0px; margin-left: 8px;&quot;&gt;develop_account_id: 开发者账号&lt;/p&gt;&lt;p style=&quot;margin: 0px; margin-left: 8px;&quot;&gt;&lt;span style=&quot;background-color: initial;&quot;&gt;app_id: 接口Appid&lt;/span&gt;&lt;br&gt;&lt;/p&gt;&lt;p style=&quot;margin: 0px; margin-left: 8px;&quot;&gt;app_secret： 接口调用secret&amp;nbsp;&lt;/p&gt;" style="verticalAlign=top;align=left;overflow=fill;fontSize=12;fontFamily=Helvetica;html=1;strokeColor=#003366;shadow=1;fillColor=#D4E1F5;fontColor=#003366" parent="1" vertex="1">
          <mxGeometry x="1040" y="445" width="250" height="140" as="geometry" />
        </mxCell>
        <mxCell id="33" value="&lt;p style=&quot;margin: 0px; margin-top: 4px; text-align: center; text-decoration: underline;&quot;&gt;&lt;b&gt;tenant_info(租户表)&lt;/b&gt;&lt;/p&gt;&lt;hr&gt;&lt;p style=&quot;margin: 0px; margin-left: 8px;&quot;&gt;&lt;span style=&quot;background-color: initial;&quot;&gt;tenant_id&lt;/span&gt;&lt;/p&gt;&lt;p style=&quot;margin: 0px; margin-left: 8px;&quot;&gt;tenate_name&lt;/p&gt;" style="verticalAlign=top;align=left;overflow=fill;fontSize=12;fontFamily=Helvetica;html=1;strokeColor=#003366;shadow=1;fillColor=#D4E1F5;fontColor=#003366" parent="1" vertex="1">
          <mxGeometry x="255" y="430" width="130" height="90" as="geometry" />
        </mxCell>
        <mxCell id="prPZOIEQMUcu1DBUgnGb-114" value="&lt;p style=&quot;margin: 0px; margin-top: 4px; text-align: center; text-decoration: underline;&quot;&gt;&lt;strong&gt;user_info(用户表)&lt;/strong&gt;&lt;/p&gt;&lt;hr&gt;&lt;p style=&quot;margin: 0px; margin-left: 8px;&quot;&gt;&lt;span style=&quot;background-color: initial;&quot;&gt;user_id：&lt;/span&gt;&lt;br&gt;&lt;/p&gt;&lt;p style=&quot;margin: 0px; margin-left: 8px;&quot;&gt;tenant_id&lt;/p&gt;&lt;p style=&quot;margin: 0px; margin-left: 8px;&quot;&gt;&lt;span style=&quot;background-color: initial;&quot;&gt;department_id&lt;/span&gt;&lt;/p&gt;&lt;p style=&quot;margin: 0px; margin-left: 8px;&quot;&gt;&lt;br&gt;&lt;/p&gt;" style="verticalAlign=top;align=left;overflow=fill;fontSize=12;fontFamily=Helvetica;html=1;strokeColor=#003366;shadow=1;fillColor=#D4E1F5;fontColor=#003366" parent="1" vertex="1">
          <mxGeometry x="480" y="445" width="130" height="140" as="geometry" />
        </mxCell>
        <mxCell id="prPZOIEQMUcu1DBUgnGb-116" value="&lt;p style=&quot;margin: 0px; margin-top: 4px; text-align: center; text-decoration: underline;&quot;&gt;&lt;strong&gt;video_cloud_develop_account_info&lt;/strong&gt;&lt;/p&gt;&lt;p style=&quot;margin: 0px; margin-top: 4px; text-align: center; text-decoration: underline;&quot;&gt;&lt;strong&gt;(视频云开发在账号表)&lt;/strong&gt;&lt;/p&gt;&lt;hr&gt;&lt;p style=&quot;margin: 0px; margin-left: 8px;&quot;&gt;account_id：账号Id&lt;/p&gt;&lt;p style=&quot;margin: 0px; margin-left: 8px;&quot;&gt;&lt;span style=&quot;background-color: initial;&quot;&gt;app_id:&amp;nbsp; app_id&lt;/span&gt;&lt;br&gt;&lt;/p&gt;&lt;p style=&quot;margin: 0px; margin-left: 8px;&quot;&gt;app_secret:&amp;nbsp;&lt;/p&gt;&lt;p style=&quot;margin: 0px; margin-left: 8px;&quot;&gt;tenent_id&lt;/p&gt;" style="verticalAlign=top;align=left;overflow=fill;fontSize=12;fontFamily=Helvetica;html=1;strokeColor=#003366;shadow=1;fillColor=#D4E1F5;fontColor=#003366" parent="1" vertex="1">
          <mxGeometry x="1060" y="90" width="240" height="140" as="geometry" />
        </mxCell>
        <mxCell id="prPZOIEQMUcu1DBUgnGb-117" value="&lt;font style=&quot;font-size: 14px;&quot;&gt;&lt;b&gt;1、应用上配置AI任务：&lt;/b&gt;&lt;br&gt;&lt;/font&gt;（1）通过用户所在在门店能得到门店对于子账号下面所拥有的摄像机列表&lt;br&gt;（2）通过摄像机表中的子账号对应的开发者账号和视频云平台进行交互&lt;br&gt;&lt;br&gt;&lt;font style=&quot;font-size: 14px;&quot;&gt;&lt;b&gt;2、看直播视频&lt;br&gt;&lt;/b&gt;&lt;/font&gt;（1）根据用户的角色确认用户是否有看视频直播的权限&lt;br&gt;（2）通过用户所在的组织获取用户访问摄像机列表&lt;br&gt;（3）播放视频时使用用户关联的视频云端子账号获取直播流（如果有）&lt;br&gt;&lt;br&gt;&lt;b&gt;&lt;font style=&quot;font-size: 14px;&quot;&gt;3、添加设备：&lt;/font&gt;&lt;/b&gt;&lt;br&gt;（1）通过用户所在的门店对应的子账号获取用户所能访问摄像机列表&lt;br&gt;（2）只能添加用户能获取到的摄像机列表中的设备" style="text;html=1;strokeColor=none;fillColor=none;align=left;verticalAlign=middle;whiteSpace=wrap;rounded=0;" parent="1" vertex="1">
          <mxGeometry x="50" y="10" width="540" height="190" as="geometry" />
        </mxCell>
        <mxCell id="prPZOIEQMUcu1DBUgnGb-118" value="&lt;p style=&quot;margin: 0px; margin-top: 4px; text-align: center; text-decoration: underline;&quot;&gt;&lt;b&gt;video_cloud_camera_info(视频云摄像机信息表)&lt;/b&gt;&lt;/p&gt;&lt;hr&gt;&lt;p style=&quot;margin: 0px; margin-left: 8px;&quot;&gt;platform_provider: 平台供应商&lt;/p&gt;&lt;p style=&quot;margin: 0px; margin-left: 8px;&quot;&gt;&lt;span style=&quot;background-color: initial;&quot;&gt;device_id: 视频云设备Id&lt;/span&gt;&lt;/p&gt;&lt;p style=&quot;margin: 0px; margin-left: 8px;&quot;&gt;device_name: 设备名&lt;/p&gt;&lt;p style=&quot;margin: 0px; margin-left: 8px;&quot;&gt;device_model: 设备型号&lt;/p&gt;&lt;p style=&quot;margin: 0px; margin-left: 8px;&quot;&gt;device_type：设备类型&lt;/p&gt;&lt;p style=&quot;margin: 0px; margin-left: 8px;&quot;&gt;device_status：设备状态&lt;/p&gt;&lt;p style=&quot;margin: 0px; margin-left: 8px;&quot;&gt;channel_no：设备通道号&lt;/p&gt;&lt;p style=&quot;margin: 0px 0px 0px 8px;&quot;&gt;&lt;span style=&quot;background-color: initial;&quot;&gt;sub_account_id：视频云设备户主账号&lt;/span&gt;&lt;br&gt;&lt;/p&gt;&lt;p style=&quot;margin: 0px; margin-left: 8px;&quot;&gt;&lt;br&gt;&lt;/p&gt;&lt;p style=&quot;margin: 0px; margin-left: 8px;&quot;&gt;&lt;br&gt;&lt;/p&gt;" style="verticalAlign=top;align=left;overflow=fill;fontSize=12;fontFamily=Helvetica;html=1;strokeColor=#003366;shadow=1;fillColor=#D4E1F5;fontColor=#003366" parent="1" vertex="1">
          <mxGeometry x="210" y="210" width="310" height="180" as="geometry" />
        </mxCell>
        <mxCell id="prPZOIEQMUcu1DBUgnGb-119" value="" style="edgeStyle=entityRelationEdgeStyle;fontSize=12;html=1;endArrow=ERmandOne;startArrow=ERmandOne;rounded=0;exitX=1.001;exitY=0.456;exitDx=0;exitDy=0;exitPerimeter=0;" parent="1" source="prPZOIEQMUcu1DBUgnGb-118" target="29" edge="1">
          <mxGeometry width="100" height="100" relative="1" as="geometry">
            <mxPoint x="720" y="750" as="sourcePoint" />
            <mxPoint x="820" y="650" as="targetPoint" />
          </mxGeometry>
        </mxCell>
        <mxCell id="8GgAKwCprTFVre6KFfDV-70" value="" style="edgeStyle=entityRelationEdgeStyle;fontSize=12;html=1;endArrow=ERoneToMany;rounded=0;fontColor=#000000;" parent="1" source="prPZOIEQMUcu1DBUgnGb-116" target="32" edge="1">
          <mxGeometry width="100" height="100" relative="1" as="geometry">
            <mxPoint x="720" y="730" as="sourcePoint" />
            <mxPoint x="820" y="630" as="targetPoint" />
          </mxGeometry>
        </mxCell>
        <mxCell id="8GgAKwCprTFVre6KFfDV-71" value="" style="edgeStyle=entityRelationEdgeStyle;fontSize=12;html=1;endArrow=ERoneToMany;rounded=0;fontColor=#000000;entryX=1;entryY=0.25;entryDx=0;entryDy=0;" parent="1" source="33" target="22" edge="1">
          <mxGeometry width="100" height="100" relative="1" as="geometry">
            <mxPoint x="780" y="1010" as="sourcePoint" />
            <mxPoint x="958.1999999999998" y="907.98" as="targetPoint" />
          </mxGeometry>
        </mxCell>
        <mxCell id="JkNPogsCPKpLKmXFPZ8Q-33" value="" style="edgeStyle=entityRelationEdgeStyle;fontSize=12;html=1;endArrow=ERoneToMany;rounded=0;fontColor=#000000;entryX=1.005;entryY=0.367;entryDx=0;entryDy=0;entryPerimeter=0;" parent="1" source="prPZOIEQMUcu1DBUgnGb-114" target="22" edge="1">
          <mxGeometry width="100" height="100" relative="1" as="geometry">
            <mxPoint x="580" y="685" as="sourcePoint" />
            <mxPoint x="680" y="490" as="targetPoint" />
          </mxGeometry>
        </mxCell>
        <mxCell id="JkNPogsCPKpLKmXFPZ8Q-36" value="" style="edgeStyle=entityRelationEdgeStyle;fontSize=12;html=1;endArrow=ERoneToMany;rounded=0;fontColor=#000000;exitX=0;exitY=0.357;exitDx=0;exitDy=0;entryX=1;entryY=0.589;entryDx=0;entryDy=0;exitPerimeter=0;entryPerimeter=0;" parent="1" source="32" target="29" edge="1">
          <mxGeometry width="100" height="100" relative="1" as="geometry">
            <mxPoint x="1090" y="510" as="sourcePoint" />
            <mxPoint x="1160" y="335" as="targetPoint" />
          </mxGeometry>
        </mxCell>
        <mxCell id="lnT_JMwce5iqp3XoTKiW-33" value="" style="edgeStyle=entityRelationEdgeStyle;fontSize=12;html=1;endArrow=ERoneToMany;rounded=0;entryX=0;entryY=0.25;entryDx=0;entryDy=0;" parent="1" source="33" target="prPZOIEQMUcu1DBUgnGb-114" edge="1">
          <mxGeometry width="100" height="100" relative="1" as="geometry">
            <mxPoint x="-20" y="610" as="sourcePoint" />
            <mxPoint x="80" y="510" as="targetPoint" />
          </mxGeometry>
        </mxCell>
        <mxCell id="1Mb29esnTBNyCgAncLfC-33" value="&lt;p style=&quot;margin: 0px; margin-top: 4px; text-align: center; text-decoration: underline;&quot;&gt;&lt;strong&gt;store_info(门店信息表)&lt;/strong&gt;&lt;/p&gt;&lt;hr&gt;&lt;p style=&quot;margin: 0px; margin-left: 8px;&quot;&gt;store_id：门店Id&lt;/p&gt;&lt;p style=&quot;margin: 0px; margin-left: 8px;&quot;&gt;store_name: 门店名称&lt;/p&gt;&lt;p style=&quot;margin: 0px; margin-left: 8px;&quot;&gt;store_director: 店长&lt;/p&gt;&lt;p style=&quot;margin: 0px; margin-left: 8px;&quot;&gt;address：地址&lt;/p&gt;&lt;p style=&quot;margin: 0px; margin-left: 8px;&quot;&gt;sub_account_id：子账号&lt;/p&gt;" style="verticalAlign=top;align=left;overflow=fill;fontSize=12;fontFamily=Helvetica;html=1;strokeColor=#003366;shadow=1;fillColor=#D4E1F5;fontColor=#003366" parent="1" vertex="1">
          <mxGeometry x="780" y="560" width="150" height="130" as="geometry" />
        </mxCell>
        <mxCell id="7lzsIe6lf6pwzxL6ax6v-33" value="&lt;p style=&quot;margin: 0px; margin-top: 4px; text-align: center; text-decoration: underline;&quot;&gt;&lt;strong&gt;r_user_store(用户和门店关系表)&lt;/strong&gt;&lt;/p&gt;&lt;hr&gt;&lt;p style=&quot;margin: 0px; margin-left: 8px;&quot;&gt;&lt;span style=&quot;background-color: initial;&quot;&gt;user_id：&lt;/span&gt;&lt;/p&gt;&lt;p style=&quot;margin: 0px; margin-left: 8px;&quot;&gt;&lt;span style=&quot;background-color: initial;&quot;&gt;store_id&lt;/span&gt;&lt;/p&gt;" style="verticalAlign=top;align=left;overflow=fill;fontSize=12;fontFamily=Helvetica;html=1;strokeColor=#003366;shadow=1;fillColor=#D4E1F5;fontColor=#003366" vertex="1" parent="1">
          <mxGeometry x="460" y="660" width="190" height="95" as="geometry" />
        </mxCell>
        <mxCell id="7lzsIe6lf6pwzxL6ax6v-35" value="" style="edgeStyle=entityRelationEdgeStyle;fontSize=12;html=1;endArrow=ERoneToMany;rounded=0;exitX=1.003;exitY=0.879;exitDx=0;exitDy=0;exitPerimeter=0;" edge="1" parent="1" source="prPZOIEQMUcu1DBUgnGb-114" target="7lzsIe6lf6pwzxL6ax6v-33">
          <mxGeometry width="100" height="100" relative="1" as="geometry">
            <mxPoint x="390" y="455" as="sourcePoint" />
            <mxPoint x="490" y="490" as="targetPoint" />
          </mxGeometry>
        </mxCell>
        <mxCell id="7lzsIe6lf6pwzxL6ax6v-36" value="" style="edgeStyle=entityRelationEdgeStyle;fontSize=12;html=1;endArrow=ERoneToMany;rounded=0;exitX=1;exitY=0.75;exitDx=0;exitDy=0;entryX=0;entryY=0.75;entryDx=0;entryDy=0;" edge="1" parent="1" source="7lzsIe6lf6pwzxL6ax6v-33" target="1Mb29esnTBNyCgAncLfC-33">
          <mxGeometry width="100" height="100" relative="1" as="geometry">
            <mxPoint x="620.3899999999999" y="578.06" as="sourcePoint" />
            <mxPoint x="660" y="717.5" as="targetPoint" />
          </mxGeometry>
        </mxCell>
        <mxCell id="7lzsIe6lf6pwzxL6ax6v-38" value="" style="edgeStyle=entityRelationEdgeStyle;fontSize=12;html=1;endArrow=ERmandOne;startArrow=ERmandOne;rounded=0;exitX=1;exitY=0.5;exitDx=0;exitDy=0;entryX=0;entryY=0.75;entryDx=0;entryDy=0;" edge="1" parent="1" source="1Mb29esnTBNyCgAncLfC-33" target="32">
          <mxGeometry width="100" height="100" relative="1" as="geometry">
            <mxPoint x="530.31" y="292.0799999999999" as="sourcePoint" />
            <mxPoint x="710" y="390" as="targetPoint" />
          </mxGeometry>
        </mxCell>
      </root>
    </mxGraphModel>
  </diagram>
  <diagram id="6DEA_Z37Xa1LU0Lx2vj2" name="设备操作流程">
    <mxGraphModel dx="1428" dy="896" grid="1" gridSize="10" guides="1" tooltips="1" connect="1" arrows="1" fold="1" page="1" pageScale="1" pageWidth="827" pageHeight="1169" math="0" shadow="0">
      <root>
        <mxCell id="0" />
        <mxCell id="1" parent="0" />
        <mxCell id="8P6WtkY7GEdGRMr7S4ZO-12" value="" style="rounded=0;whiteSpace=wrap;html=1;fontSize=14;dashed=1;" parent="1" vertex="1">
          <mxGeometry x="10" y="20" width="740" height="220" as="geometry" />
        </mxCell>
        <mxCell id="8P6WtkY7GEdGRMr7S4ZO-11" value="" style="edgeStyle=orthogonalEdgeStyle;rounded=0;orthogonalLoop=1;jettySize=auto;html=1;fontSize=14;" parent="1" source="8P6WtkY7GEdGRMr7S4ZO-2" target="8P6WtkY7GEdGRMr7S4ZO-6" edge="1">
          <mxGeometry relative="1" as="geometry" />
        </mxCell>
        <mxCell id="8P6WtkY7GEdGRMr7S4ZO-2" value="设备同步服务" style="rounded=1;whiteSpace=wrap;html=1;fontSize=14;" parent="1" vertex="1">
          <mxGeometry x="360" y="110" width="120" height="60" as="geometry" />
        </mxCell>
        <mxCell id="8P6WtkY7GEdGRMr7S4ZO-4" value="" style="edgeStyle=orthogonalEdgeStyle;rounded=0;orthogonalLoop=1;jettySize=auto;html=1;fontSize=14;" parent="1" source="8P6WtkY7GEdGRMr7S4ZO-3" target="8P6WtkY7GEdGRMr7S4ZO-2" edge="1">
          <mxGeometry relative="1" as="geometry" />
        </mxCell>
        <mxCell id="8P6WtkY7GEdGRMr7S4ZO-5" value="定时同步" style="edgeLabel;html=1;align=center;verticalAlign=middle;resizable=0;points=[];fontSize=14;" parent="8P6WtkY7GEdGRMr7S4ZO-4" vertex="1" connectable="0">
          <mxGeometry x="-0.0722" y="1" relative="1" as="geometry">
            <mxPoint x="-69" y="1" as="offset" />
          </mxGeometry>
        </mxCell>
        <mxCell id="8P6WtkY7GEdGRMr7S4ZO-3" value="" style="points=[[0.145,0.145,0],[0.5,0,0],[0.855,0.145,0],[1,0.5,0],[0.855,0.855,0],[0.5,1,0],[0.145,0.855,0],[0,0.5,0]];shape=mxgraph.bpmn.event;html=1;verticalLabelPosition=bottom;labelBackgroundColor=#ffffff;verticalAlign=top;align=center;perimeter=ellipsePerimeter;outlineConnect=0;aspect=fixed;outline=standard;symbol=timer;fontSize=14;" parent="1" vertex="1">
          <mxGeometry x="50" y="170" width="50" height="50" as="geometry" />
        </mxCell>
        <mxCell id="8P6WtkY7GEdGRMr7S4ZO-6" value="摄像机同步表" style="shape=cylinder3;whiteSpace=wrap;html=1;boundedLbl=1;backgroundOutline=1;size=15;fontSize=14;" parent="1" vertex="1">
          <mxGeometry x="590" y="100" width="140" height="80" as="geometry" />
        </mxCell>
        <mxCell id="8P6WtkY7GEdGRMr7S4ZO-9" style="edgeStyle=orthogonalEdgeStyle;rounded=0;orthogonalLoop=1;jettySize=auto;html=1;exitX=1;exitY=0.5;exitDx=0;exitDy=0;exitPerimeter=0;entryX=0;entryY=0.5;entryDx=0;entryDy=0;fontSize=14;" parent="1" source="8P6WtkY7GEdGRMr7S4ZO-8" target="8P6WtkY7GEdGRMr7S4ZO-2" edge="1">
          <mxGeometry relative="1" as="geometry">
            <Array as="points">
              <mxPoint x="120" y="80" />
              <mxPoint x="230" y="80" />
              <mxPoint x="230" y="140" />
            </Array>
          </mxGeometry>
        </mxCell>
        <mxCell id="8P6WtkY7GEdGRMr7S4ZO-10" value="手工同步" style="edgeLabel;html=1;align=center;verticalAlign=middle;resizable=0;points=[];fontSize=14;" parent="8P6WtkY7GEdGRMr7S4ZO-9" vertex="1" connectable="0">
          <mxGeometry x="-0.6638" y="1" relative="1" as="geometry">
            <mxPoint as="offset" />
          </mxGeometry>
        </mxCell>
        <mxCell id="8P6WtkY7GEdGRMr7S4ZO-8" value="Web页面" style="html=1;shape=mxgraph.infographic.ribbonSimple;notch1=20;notch2=0;align=center;verticalAlign=middle;fontSize=14;fontStyle=0;fillColor=#FFFFFF;flipH=0;spacingRight=0;spacingLeft=14;" parent="1" vertex="1">
          <mxGeometry x="30" y="60" width="90" height="40" as="geometry" />
        </mxCell>
        <mxCell id="8P6WtkY7GEdGRMr7S4ZO-14" value="设备信息同步流程" style="text;html=1;strokeColor=none;fillColor=none;align=center;verticalAlign=middle;whiteSpace=wrap;rounded=0;dashed=1;fontSize=14;fontColor=#7EA6E0;" parent="1" vertex="1">
          <mxGeometry x="280" y="20" width="180" height="40" as="geometry" />
        </mxCell>
        <mxCell id="Y3j7ugrH2uAdMdnh6kX6-3" value="" style="edgeStyle=orthogonalEdgeStyle;rounded=0;orthogonalLoop=1;jettySize=auto;html=1;fontSize=14;fontColor=#000000;" parent="1" source="8P6WtkY7GEdGRMr7S4ZO-15" target="8P6WtkY7GEdGRMr7S4ZO-17" edge="1">
          <mxGeometry relative="1" as="geometry" />
        </mxCell>
        <mxCell id="8P6WtkY7GEdGRMr7S4ZO-15" value="执行添加设备操作" style="rounded=1;whiteSpace=wrap;html=1;fontSize=14;" parent="1" vertex="1">
          <mxGeometry x="90" y="420" width="280" height="50" as="geometry" />
        </mxCell>
        <mxCell id="8P6WtkY7GEdGRMr7S4ZO-16" value="&lt;font color=&quot;#000000&quot;&gt;店长或管理员&lt;/font&gt;" style="shape=umlActor;verticalLabelPosition=bottom;verticalAlign=top;html=1;outlineConnect=0;fontSize=14;fontColor=#7EA6E0;" parent="1" vertex="1">
          <mxGeometry x="30" y="280" width="30" height="60" as="geometry" />
        </mxCell>
        <mxCell id="Y3j7ugrH2uAdMdnh6kX6-4" value="" style="edgeStyle=orthogonalEdgeStyle;rounded=0;orthogonalLoop=1;jettySize=auto;html=1;fontSize=14;fontColor=#000000;" parent="1" source="8P6WtkY7GEdGRMr7S4ZO-17" target="P5ymRtto2EQK2mSx_d3y-1" edge="1">
          <mxGeometry relative="1" as="geometry" />
        </mxCell>
        <mxCell id="8P6WtkY7GEdGRMr7S4ZO-17" value="根据用户所在门店获取获取子账号列表" style="rounded=1;whiteSpace=wrap;html=1;fontSize=14;" parent="1" vertex="1">
          <mxGeometry x="90" y="534.5" width="280" height="50" as="geometry" />
        </mxCell>
        <mxCell id="Y3j7ugrH2uAdMdnh6kX6-5" value="" style="edgeStyle=orthogonalEdgeStyle;rounded=0;orthogonalLoop=1;jettySize=auto;html=1;fontSize=14;fontColor=#000000;" parent="1" source="P5ymRtto2EQK2mSx_d3y-1" target="KdT8zTc7T3fG-2CvEBio-1" edge="1">
          <mxGeometry relative="1" as="geometry" />
        </mxCell>
        <mxCell id="P5ymRtto2EQK2mSx_d3y-1" value="获取子账号下的所有设备列表（从同步表中获取）" style="rounded=1;whiteSpace=wrap;html=1;fontSize=14;" parent="1" vertex="1">
          <mxGeometry x="105" y="640" width="250" height="50" as="geometry" />
        </mxCell>
        <mxCell id="Y3j7ugrH2uAdMdnh6kX6-2" value="" style="edgeStyle=orthogonalEdgeStyle;rounded=0;orthogonalLoop=1;jettySize=auto;html=1;fontSize=14;fontColor=#000000;" parent="1" source="P5ymRtto2EQK2mSx_d3y-2" target="8P6WtkY7GEdGRMr7S4ZO-15" edge="1">
          <mxGeometry relative="1" as="geometry" />
        </mxCell>
        <mxCell id="P5ymRtto2EQK2mSx_d3y-2" value="进入(选择)分店" style="rounded=1;whiteSpace=wrap;html=1;fontSize=14;" parent="1" vertex="1">
          <mxGeometry x="170" y="320" width="120" height="50" as="geometry" />
        </mxCell>
        <mxCell id="Y3j7ugrH2uAdMdnh6kX6-6" value="" style="edgeStyle=orthogonalEdgeStyle;rounded=0;orthogonalLoop=1;jettySize=auto;html=1;fontSize=14;fontColor=#000000;" parent="1" source="KdT8zTc7T3fG-2CvEBio-1" target="Y3j7ugrH2uAdMdnh6kX6-1" edge="1">
          <mxGeometry relative="1" as="geometry" />
        </mxCell>
        <mxCell id="KdT8zTc7T3fG-2CvEBio-1" value="过滤出还未添加的摄像机列表" style="rounded=1;whiteSpace=wrap;html=1;fontSize=14;" parent="1" vertex="1">
          <mxGeometry x="105" y="740" width="250" height="50" as="geometry" />
        </mxCell>
        <mxCell id="Y3j7ugrH2uAdMdnh6kX6-9" value="" style="edgeStyle=orthogonalEdgeStyle;rounded=0;orthogonalLoop=1;jettySize=auto;html=1;fontSize=14;fontColor=#000000;" parent="1" source="Y3j7ugrH2uAdMdnh6kX6-1" target="Y3j7ugrH2uAdMdnh6kX6-8" edge="1">
          <mxGeometry relative="1" as="geometry" />
        </mxCell>
        <mxCell id="Y3j7ugrH2uAdMdnh6kX6-1" value="修改设备信息，添加validecode" style="rounded=1;whiteSpace=wrap;html=1;fontSize=14;" parent="1" vertex="1">
          <mxGeometry x="105" y="840" width="250" height="50" as="geometry" />
        </mxCell>
        <mxCell id="Y3j7ugrH2uAdMdnh6kX6-12" value="" style="edgeStyle=orthogonalEdgeStyle;rounded=0;orthogonalLoop=1;jettySize=auto;html=1;fontSize=14;fontColor=#000000;" parent="1" source="Y3j7ugrH2uAdMdnh6kX6-8" target="Y3j7ugrH2uAdMdnh6kX6-11" edge="1">
          <mxGeometry relative="1" as="geometry" />
        </mxCell>
        <mxCell id="Y3j7ugrH2uAdMdnh6kX6-8" value="调用Nebula接口添加设备" style="rounded=1;whiteSpace=wrap;html=1;fontSize=14;" parent="1" vertex="1">
          <mxGeometry x="105" y="930" width="250" height="50" as="geometry" />
        </mxCell>
        <mxCell id="Y3j7ugrH2uAdMdnh6kX6-11" value="完成一个设备添加" style="rounded=1;whiteSpace=wrap;html=1;fontSize=14;" parent="1" vertex="1">
          <mxGeometry x="105" y="1020" width="250" height="50" as="geometry" />
        </mxCell>
        <mxCell id="zUv9AzyiuYPNvfsvIyoC-1" value="" style="edgeStyle=orthogonalEdgeStyle;rounded=0;orthogonalLoop=1;jettySize=auto;html=1;fontSize=14;fontColor=#000000;" parent="1" source="zUv9AzyiuYPNvfsvIyoC-2" target="zUv9AzyiuYPNvfsvIyoC-4" edge="1">
          <mxGeometry relative="1" as="geometry" />
        </mxCell>
        <mxCell id="zUv9AzyiuYPNvfsvIyoC-2" value="获取任务下的摄像机列表" style="rounded=1;whiteSpace=wrap;html=1;fontSize=14;" parent="1" vertex="1">
          <mxGeometry x="510" y="400" width="280" height="50" as="geometry" />
        </mxCell>
        <mxCell id="zUv9AzyiuYPNvfsvIyoC-3" value="" style="edgeStyle=orthogonalEdgeStyle;rounded=0;orthogonalLoop=1;jettySize=auto;html=1;fontSize=14;fontColor=#000000;entryX=0.5;entryY=0;entryDx=0;entryDy=0;" parent="1" source="zUv9AzyiuYPNvfsvIyoC-4" target="zUv9AzyiuYPNvfsvIyoC-17" edge="1">
          <mxGeometry relative="1" as="geometry">
            <mxPoint x="650" y="600" as="targetPoint" />
          </mxGeometry>
        </mxCell>
        <mxCell id="zUv9AzyiuYPNvfsvIyoC-4" value="从缓存中获取accessToken和直播地址" style="rounded=1;whiteSpace=wrap;html=1;fontSize=14;" parent="1" vertex="1">
          <mxGeometry x="510" y="500" width="280" height="50" as="geometry" />
        </mxCell>
        <mxCell id="zUv9AzyiuYPNvfsvIyoC-5" value="" style="edgeStyle=orthogonalEdgeStyle;rounded=0;orthogonalLoop=1;jettySize=auto;html=1;fontSize=14;fontColor=#000000;exitX=0.5;exitY=1;exitDx=0;exitDy=0;entryX=0.5;entryY=0;entryDx=0;entryDy=0;" parent="1" source="zUv9AzyiuYPNvfsvIyoC-17" target="zUv9AzyiuYPNvfsvIyoC-22" edge="1">
          <mxGeometry relative="1" as="geometry">
            <mxPoint x="650" y="650" as="sourcePoint" />
          </mxGeometry>
        </mxCell>
        <mxCell id="zUv9AzyiuYPNvfsvIyoC-7" value="" style="edgeStyle=orthogonalEdgeStyle;rounded=0;orthogonalLoop=1;jettySize=auto;html=1;fontSize=14;fontColor=#000000;" parent="1" source="zUv9AzyiuYPNvfsvIyoC-8" target="zUv9AzyiuYPNvfsvIyoC-2" edge="1">
          <mxGeometry relative="1" as="geometry" />
        </mxCell>
        <mxCell id="zUv9AzyiuYPNvfsvIyoC-8" value="启动AI任务" style="rounded=1;whiteSpace=wrap;html=1;fontSize=14;" parent="1" vertex="1">
          <mxGeometry x="590" y="300" width="120" height="50" as="geometry" />
        </mxCell>
        <mxCell id="zUv9AzyiuYPNvfsvIyoC-9" value="" style="edgeStyle=orthogonalEdgeStyle;rounded=0;orthogonalLoop=1;jettySize=auto;html=1;fontSize=14;fontColor=#000000;" parent="1" source="zUv9AzyiuYPNvfsvIyoC-10" target="zUv9AzyiuYPNvfsvIyoC-12" edge="1">
          <mxGeometry relative="1" as="geometry" />
        </mxCell>
        <mxCell id="zUv9AzyiuYPNvfsvIyoC-27" value="" style="edgeStyle=orthogonalEdgeStyle;rounded=0;orthogonalLoop=1;jettySize=auto;html=1;fontSize=14;fontColor=#000000;exitX=1;exitY=0.5;exitDx=0;exitDy=0;" parent="1" source="zUv9AzyiuYPNvfsvIyoC-22" target="zUv9AzyiuYPNvfsvIyoC-26" edge="1">
          <mxGeometry relative="1" as="geometry" />
        </mxCell>
        <mxCell id="zUv9AzyiuYPNvfsvIyoC-10" value="抓拍图片" style="rounded=1;whiteSpace=wrap;html=1;fontSize=14;" parent="1" vertex="1">
          <mxGeometry x="525" y="840" width="250" height="50" as="geometry" />
        </mxCell>
        <mxCell id="zUv9AzyiuYPNvfsvIyoC-12" value="调用Nebula接口解析图片" style="rounded=1;whiteSpace=wrap;html=1;fontSize=14;" parent="1" vertex="1">
          <mxGeometry x="525" y="940" width="250" height="50" as="geometry" />
        </mxCell>
        <mxCell id="zUv9AzyiuYPNvfsvIyoC-13" value="" style="edgeStyle=orthogonalEdgeStyle;rounded=0;orthogonalLoop=1;jettySize=auto;html=1;fontSize=14;fontColor=#000000;" parent="1" source="zUv9AzyiuYPNvfsvIyoC-12" target="zUv9AzyiuYPNvfsvIyoC-15" edge="1">
          <mxGeometry relative="1" as="geometry">
            <mxPoint x="650" y="1130" as="sourcePoint" />
            <Array as="points">
              <mxPoint x="650" y="1130" />
              <mxPoint x="795" y="1130" />
            </Array>
          </mxGeometry>
        </mxCell>
        <mxCell id="zUv9AzyiuYPNvfsvIyoC-15" value="分析结构化数据" style="rounded=1;whiteSpace=wrap;html=1;fontSize=14;" parent="1" vertex="1">
          <mxGeometry x="670" y="1180" width="250" height="50" as="geometry" />
        </mxCell>
        <mxCell id="zUv9AzyiuYPNvfsvIyoC-21" value="" style="edgeStyle=orthogonalEdgeStyle;rounded=0;orthogonalLoop=1;jettySize=auto;html=1;fontSize=14;fontColor=#000000;" parent="1" source="zUv9AzyiuYPNvfsvIyoC-16" target="zUv9AzyiuYPNvfsvIyoC-20" edge="1">
          <mxGeometry relative="1" as="geometry" />
        </mxCell>
        <mxCell id="zUv9AzyiuYPNvfsvIyoC-16" value="&lt;meta charset=&quot;utf-8&quot;&gt;&lt;span style=&quot;color: rgb(0, 0, 0); font-family: Helvetica; font-size: 14px; font-style: normal; font-variant-ligatures: normal; font-variant-caps: normal; font-weight: 400; letter-spacing: normal; orphans: 2; text-align: center; text-indent: 0px; text-transform: none; widows: 2; word-spacing: 0px; -webkit-text-stroke-width: 0px; background-color: rgb(248, 249, 250); text-decoration-thickness: initial; text-decoration-style: initial; text-decoration-color: initial; float: none; display: inline !important;&quot;&gt;获取摄像机的开发者账号及接口访问appid和appSecret&lt;/span&gt;" style="rounded=1;whiteSpace=wrap;html=1;fontSize=14;" parent="1" vertex="1">
          <mxGeometry x="810" y="605" width="250" height="50" as="geometry" />
        </mxCell>
        <mxCell id="zUv9AzyiuYPNvfsvIyoC-19" value="" style="edgeStyle=orthogonalEdgeStyle;rounded=0;orthogonalLoop=1;jettySize=auto;html=1;fontSize=14;fontColor=#000000;" parent="1" source="zUv9AzyiuYPNvfsvIyoC-17" target="zUv9AzyiuYPNvfsvIyoC-16" edge="1">
          <mxGeometry relative="1" as="geometry" />
        </mxCell>
        <mxCell id="zUv9AzyiuYPNvfsvIyoC-17" value="accessToken和视频流地址是否过期" style="rhombus;whiteSpace=wrap;html=1;fontSize=14;fontColor=#000000;" parent="1" vertex="1">
          <mxGeometry x="545" y="600" width="210" height="60" as="geometry" />
        </mxCell>
        <mxCell id="zUv9AzyiuYPNvfsvIyoC-20" value="&lt;span style=&quot;color: rgb(0, 0, 0); font-family: Helvetica; font-size: 14px; font-style: normal; font-variant-ligatures: normal; font-variant-caps: normal; font-weight: 400; letter-spacing: normal; orphans: 2; text-align: center; text-indent: 0px; text-transform: none; widows: 2; word-spacing: 0px; -webkit-text-stroke-width: 0px; background-color: rgb(248, 249, 250); text-decoration-thickness: initial; text-decoration-style: initial; text-decoration-color: initial; float: none; display: inline !important;&quot;&gt;更新accessToken&lt;/span&gt;" style="rounded=1;whiteSpace=wrap;html=1;fontSize=14;" parent="1" vertex="1">
          <mxGeometry x="1110" y="605" width="160" height="50" as="geometry" />
        </mxCell>
        <mxCell id="zUv9AzyiuYPNvfsvIyoC-22" value="基于图片分析？" style="rhombus;whiteSpace=wrap;html=1;fontSize=14;fontColor=#000000;" parent="1" vertex="1">
          <mxGeometry x="544" y="730" width="210" height="60" as="geometry" />
        </mxCell>
        <mxCell id="zUv9AzyiuYPNvfsvIyoC-23" value="" style="edgeStyle=orthogonalEdgeStyle;rounded=0;orthogonalLoop=1;jettySize=auto;html=1;fontSize=14;fontColor=#000000;entryX=0.5;entryY=0;entryDx=0;entryDy=0;" parent="1" target="zUv9AzyiuYPNvfsvIyoC-10" edge="1">
          <mxGeometry relative="1" as="geometry">
            <mxPoint x="650" y="790" as="sourcePoint" />
            <mxPoint x="660" y="740" as="targetPoint" />
          </mxGeometry>
        </mxCell>
        <mxCell id="zUv9AzyiuYPNvfsvIyoC-30" value="" style="edgeStyle=orthogonalEdgeStyle;rounded=0;orthogonalLoop=1;jettySize=auto;html=1;fontSize=14;fontColor=#000000;" parent="1" source="zUv9AzyiuYPNvfsvIyoC-26" target="zUv9AzyiuYPNvfsvIyoC-28" edge="1">
          <mxGeometry relative="1" as="geometry" />
        </mxCell>
        <mxCell id="zUv9AzyiuYPNvfsvIyoC-26" value="拉取直播流推送视频流" style="rounded=1;whiteSpace=wrap;html=1;fontSize=14;" parent="1" vertex="1">
          <mxGeometry x="860" y="840" width="250" height="50" as="geometry" />
        </mxCell>
        <mxCell id="zUv9AzyiuYPNvfsvIyoC-31" value="" style="edgeStyle=orthogonalEdgeStyle;rounded=0;orthogonalLoop=1;jettySize=auto;html=1;fontSize=14;fontColor=#000000;" parent="1" source="zUv9AzyiuYPNvfsvIyoC-28" target="zUv9AzyiuYPNvfsvIyoC-29" edge="1">
          <mxGeometry relative="1" as="geometry" />
        </mxCell>
        <mxCell id="zUv9AzyiuYPNvfsvIyoC-28" value="启动任务" style="rounded=1;whiteSpace=wrap;html=1;fontSize=14;" parent="1" vertex="1">
          <mxGeometry x="860" y="940" width="250" height="50" as="geometry" />
        </mxCell>
        <mxCell id="zUv9AzyiuYPNvfsvIyoC-29" value="订阅分析结果" style="rounded=1;whiteSpace=wrap;html=1;fontSize=14;" parent="1" vertex="1">
          <mxGeometry x="860" y="1030" width="250" height="50" as="geometry" />
        </mxCell>
        <mxCell id="zUv9AzyiuYPNvfsvIyoC-32" value="" style="edgeStyle=orthogonalEdgeStyle;rounded=0;orthogonalLoop=1;jettySize=auto;html=1;fontSize=14;fontColor=#000000;exitX=0.5;exitY=1;exitDx=0;exitDy=0;entryX=0.621;entryY=-0.029;entryDx=0;entryDy=0;entryPerimeter=0;" parent="1" source="zUv9AzyiuYPNvfsvIyoC-29" target="zUv9AzyiuYPNvfsvIyoC-15" edge="1">
          <mxGeometry relative="1" as="geometry">
            <mxPoint x="660" y="1050" as="sourcePoint" />
            <mxPoint x="805" y="1260" as="targetPoint" />
          </mxGeometry>
        </mxCell>
      </root>
    </mxGraphModel>
  </diagram>
  <diagram id="9fchHb3zOBI4nuRs43fC" name="缓存视频片段">
    <mxGraphModel dx="1428" dy="896" grid="1" gridSize="10" guides="1" tooltips="1" connect="1" arrows="1" fold="1" page="1" pageScale="1" pageWidth="827" pageHeight="1169" math="0" shadow="0">
      <root>
        <mxCell id="0" />
        <mxCell id="1" parent="0" />
        <mxCell id="_GYjczwFpr1CH4U-oiK9-1" value="视频处理流程" style="swimlane;html=1;childLayout=stackLayout;startSize=20;rounded=0;shadow=0;labelBackgroundColor=none;strokeWidth=1;fontFamily=Verdana;fontSize=8;align=center;" vertex="1" parent="1">
          <mxGeometry x="14" y="90" width="800" height="595" as="geometry" />
        </mxCell>
        <mxCell id="_GYjczwFpr1CH4U-oiK9-2" value="视频云" style="swimlane;html=1;startSize=20;" vertex="1" parent="_GYjczwFpr1CH4U-oiK9-1">
          <mxGeometry y="20" width="160" height="575" as="geometry" />
        </mxCell>
        <mxCell id="_GYjczwFpr1CH4U-oiK9-3" value="API接口" style="rounded=1;whiteSpace=wrap;html=1;shadow=0;labelBackgroundColor=none;strokeWidth=1;fontFamily=Verdana;fontSize=8;align=center;" vertex="1" parent="_GYjczwFpr1CH4U-oiK9-2">
          <mxGeometry x="65" y="53" width="30" height="390" as="geometry" />
        </mxCell>
        <mxCell id="_GYjczwFpr1CH4U-oiK9-4" value="视频处理服务" style="swimlane;html=1;startSize=20;" vertex="1" parent="_GYjczwFpr1CH4U-oiK9-1">
          <mxGeometry x="160" y="20" width="160" height="575" as="geometry" />
        </mxCell>
        <mxCell id="_GYjczwFpr1CH4U-oiK9-5" value="" style="edgeStyle=orthogonalEdgeStyle;rounded=0;orthogonalLoop=1;jettySize=auto;html=1;" edge="1" parent="_GYjczwFpr1CH4U-oiK9-4" source="_GYjczwFpr1CH4U-oiK9-6" target="_GYjczwFpr1CH4U-oiK9-8">
          <mxGeometry relative="1" as="geometry" />
        </mxCell>
        <mxCell id="_GYjczwFpr1CH4U-oiK9-6" value="启动视频流处理任务" style="rounded=1;whiteSpace=wrap;html=1;shadow=0;labelBackgroundColor=none;strokeWidth=1;fontFamily=Verdana;fontSize=8;align=center;" vertex="1" parent="_GYjczwFpr1CH4U-oiK9-4">
          <mxGeometry x="30" y="60" width="100" height="40" as="geometry" />
        </mxCell>
        <mxCell id="_GYjczwFpr1CH4U-oiK9-7" value="" style="edgeStyle=orthogonalEdgeStyle;rounded=0;orthogonalLoop=1;jettySize=auto;html=1;" edge="1" parent="_GYjczwFpr1CH4U-oiK9-4" source="_GYjczwFpr1CH4U-oiK9-8" target="_GYjczwFpr1CH4U-oiK9-10">
          <mxGeometry relative="1" as="geometry" />
        </mxCell>
        <mxCell id="_GYjczwFpr1CH4U-oiK9-8" value="获取播放地址" style="rounded=1;whiteSpace=wrap;html=1;shadow=0;labelBackgroundColor=none;strokeWidth=1;fontFamily=Verdana;fontSize=8;align=center;" vertex="1" parent="_GYjczwFpr1CH4U-oiK9-4">
          <mxGeometry x="30" y="140" width="100" height="40" as="geometry" />
        </mxCell>
        <mxCell id="_GYjczwFpr1CH4U-oiK9-9" value="" style="edgeStyle=orthogonalEdgeStyle;rounded=0;orthogonalLoop=1;jettySize=auto;html=1;" edge="1" parent="_GYjczwFpr1CH4U-oiK9-4" source="_GYjczwFpr1CH4U-oiK9-10" target="_GYjczwFpr1CH4U-oiK9-14">
          <mxGeometry relative="1" as="geometry" />
        </mxCell>
        <mxCell id="_GYjczwFpr1CH4U-oiK9-10" value="播放视频缓存视频片段" style="rounded=1;whiteSpace=wrap;html=1;shadow=0;labelBackgroundColor=none;strokeWidth=1;fontFamily=Verdana;fontSize=8;align=center;" vertex="1" parent="_GYjczwFpr1CH4U-oiK9-4">
          <mxGeometry x="30" y="220" width="100" height="40" as="geometry" />
        </mxCell>
        <mxCell id="_GYjczwFpr1CH4U-oiK9-11" value="" style="edgeStyle=orthogonalEdgeStyle;rounded=0;orthogonalLoop=1;jettySize=auto;html=1;endArrow=classicThin;endFill=1;" edge="1" parent="_GYjczwFpr1CH4U-oiK9-4" source="_GYjczwFpr1CH4U-oiK9-12" target="_GYjczwFpr1CH4U-oiK9-16">
          <mxGeometry relative="1" as="geometry" />
        </mxCell>
        <mxCell id="_GYjczwFpr1CH4U-oiK9-12" value="视频流文件格式及编码转换" style="rounded=1;whiteSpace=wrap;html=1;shadow=0;labelBackgroundColor=none;strokeWidth=1;fontFamily=Verdana;fontSize=8;align=center;" vertex="1" parent="_GYjczwFpr1CH4U-oiK9-4">
          <mxGeometry x="30" y="365" width="100" height="40" as="geometry" />
        </mxCell>
        <mxCell id="_GYjczwFpr1CH4U-oiK9-13" value="" style="edgeStyle=orthogonalEdgeStyle;rounded=0;orthogonalLoop=1;jettySize=auto;html=1;" edge="1" parent="_GYjczwFpr1CH4U-oiK9-4" source="_GYjczwFpr1CH4U-oiK9-14" target="_GYjczwFpr1CH4U-oiK9-12">
          <mxGeometry relative="1" as="geometry" />
        </mxCell>
        <mxCell id="_GYjczwFpr1CH4U-oiK9-14" value="保存视频片段文件" style="rounded=1;whiteSpace=wrap;html=1;shadow=0;labelBackgroundColor=none;strokeWidth=1;fontFamily=Verdana;fontSize=8;align=center;" vertex="1" parent="_GYjczwFpr1CH4U-oiK9-4">
          <mxGeometry x="30" y="290" width="100" height="40" as="geometry" />
        </mxCell>
        <mxCell id="_GYjczwFpr1CH4U-oiK9-15" value="" style="edgeStyle=orthogonalEdgeStyle;rounded=0;orthogonalLoop=1;jettySize=auto;html=1;endArrow=classicThin;endFill=1;" edge="1" parent="_GYjczwFpr1CH4U-oiK9-4" source="_GYjczwFpr1CH4U-oiK9-16" target="_GYjczwFpr1CH4U-oiK9-17">
          <mxGeometry relative="1" as="geometry" />
        </mxCell>
        <mxCell id="_GYjczwFpr1CH4U-oiK9-16" value="将mp4文件推送至rtsp流服务器" style="rounded=1;whiteSpace=wrap;html=1;shadow=0;labelBackgroundColor=none;strokeWidth=1;fontFamily=Verdana;fontSize=8;align=center;" vertex="1" parent="_GYjczwFpr1CH4U-oiK9-4">
          <mxGeometry x="30" y="440" width="100" height="40" as="geometry" />
        </mxCell>
        <mxCell id="_GYjczwFpr1CH4U-oiK9-17" value="通知任务管理服务" style="rounded=1;whiteSpace=wrap;html=1;shadow=0;labelBackgroundColor=none;strokeWidth=1;fontFamily=Verdana;fontSize=8;align=center;" vertex="1" parent="_GYjczwFpr1CH4U-oiK9-4">
          <mxGeometry x="30" y="510" width="100" height="40" as="geometry" />
        </mxCell>
        <mxCell id="_GYjczwFpr1CH4U-oiK9-18" value="任务管理服务" style="swimlane;html=1;startSize=20;" vertex="1" parent="_GYjczwFpr1CH4U-oiK9-1">
          <mxGeometry x="320" y="20" width="160" height="575" as="geometry" />
        </mxCell>
        <mxCell id="_GYjczwFpr1CH4U-oiK9-19" value="触发指定设备分析任务" style="rounded=1;whiteSpace=wrap;html=1;shadow=0;labelBackgroundColor=none;strokeWidth=1;fontFamily=Verdana;fontSize=8;align=center;" vertex="1" parent="_GYjczwFpr1CH4U-oiK9-18">
          <mxGeometry x="40" y="60" width="100" height="40" as="geometry" />
        </mxCell>
        <mxCell id="_GYjczwFpr1CH4U-oiK9-20" value="" style="edgeStyle=orthogonalEdgeStyle;rounded=0;orthogonalLoop=1;jettySize=auto;html=1;endArrow=classicThin;endFill=1;strokeColor=#000000;" edge="1" parent="_GYjczwFpr1CH4U-oiK9-18" source="_GYjczwFpr1CH4U-oiK9-21" target="_GYjczwFpr1CH4U-oiK9-22">
          <mxGeometry relative="1" as="geometry" />
        </mxCell>
        <mxCell id="_GYjczwFpr1CH4U-oiK9-21" value="接到新视频流请求" style="rounded=1;whiteSpace=wrap;html=1;shadow=0;labelBackgroundColor=none;strokeWidth=1;fontFamily=Verdana;fontSize=8;align=center;" vertex="1" parent="_GYjczwFpr1CH4U-oiK9-18">
          <mxGeometry x="20" y="190" width="120" height="40" as="geometry" />
        </mxCell>
        <mxCell id="_GYjczwFpr1CH4U-oiK9-22" value="调用Nebula接口启动分析任务" style="rounded=1;whiteSpace=wrap;html=1;shadow=0;labelBackgroundColor=none;strokeWidth=1;fontFamily=Verdana;fontSize=8;align=center;" vertex="1" parent="_GYjczwFpr1CH4U-oiK9-18">
          <mxGeometry x="20" y="260" width="120" height="40" as="geometry" />
        </mxCell>
        <mxCell id="_GYjczwFpr1CH4U-oiK9-23" value="RTSP视频流服务器" style="swimlane;html=1;startSize=20;" vertex="1" parent="_GYjczwFpr1CH4U-oiK9-1">
          <mxGeometry x="480" y="20" width="160" height="575" as="geometry" />
        </mxCell>
        <mxCell id="_GYjczwFpr1CH4U-oiK9-24" value="rtsp视频流" style="shape=document;whiteSpace=wrap;html=1;boundedLbl=1;" vertex="1" parent="_GYjczwFpr1CH4U-oiK9-23">
          <mxGeometry x="34" y="385" width="82" height="80" as="geometry" />
        </mxCell>
        <mxCell id="_GYjczwFpr1CH4U-oiK9-25" value="" style="endArrow=classic;html=1;rounded=0;entryX=1;entryY=0.5;entryDx=0;entryDy=0;exitX=0;exitY=0.5;exitDx=0;exitDy=0;" edge="1" parent="_GYjczwFpr1CH4U-oiK9-1" source="_GYjczwFpr1CH4U-oiK9-19" target="_GYjczwFpr1CH4U-oiK9-6">
          <mxGeometry width="50" height="50" relative="1" as="geometry">
            <mxPoint x="440" y="390" as="sourcePoint" />
            <mxPoint x="490" y="340" as="targetPoint" />
          </mxGeometry>
        </mxCell>
        <mxCell id="_GYjczwFpr1CH4U-oiK9-26" value="" style="endArrow=classic;html=1;rounded=0;exitX=0;exitY=0.25;exitDx=0;exitDy=0;entryX=1;entryY=0.25;entryDx=0;entryDy=0;" edge="1" parent="_GYjczwFpr1CH4U-oiK9-1" source="_GYjczwFpr1CH4U-oiK9-8" target="_GYjczwFpr1CH4U-oiK9-3">
          <mxGeometry width="50" height="50" relative="1" as="geometry">
            <mxPoint x="440" y="390" as="sourcePoint" />
            <mxPoint x="100" y="170" as="targetPoint" />
          </mxGeometry>
        </mxCell>
        <mxCell id="_GYjczwFpr1CH4U-oiK9-27" value="" style="endArrow=classicThin;dashed=1;html=1;rounded=0;exitX=0.959;exitY=0.299;exitDx=0;exitDy=0;exitPerimeter=0;entryX=0;entryY=0.75;entryDx=0;entryDy=0;endFill=1;" edge="1" parent="_GYjczwFpr1CH4U-oiK9-1" source="_GYjczwFpr1CH4U-oiK9-3" target="_GYjczwFpr1CH4U-oiK9-8">
          <mxGeometry width="50" height="50" relative="1" as="geometry">
            <mxPoint x="440" y="390" as="sourcePoint" />
            <mxPoint x="490" y="340" as="targetPoint" />
          </mxGeometry>
        </mxCell>
        <mxCell id="_GYjczwFpr1CH4U-oiK9-28" style="edgeStyle=orthogonalEdgeStyle;rounded=0;orthogonalLoop=1;jettySize=auto;html=1;entryX=0;entryY=0.5;entryDx=0;entryDy=0;endArrow=classicThin;endFill=1;dashed=1;dashPattern=1 1;strokeColor=#FF9999;" edge="1" parent="_GYjczwFpr1CH4U-oiK9-1" source="_GYjczwFpr1CH4U-oiK9-16" target="_GYjczwFpr1CH4U-oiK9-24">
          <mxGeometry relative="1" as="geometry" />
        </mxCell>
        <mxCell id="_GYjczwFpr1CH4U-oiK9-29" style="edgeStyle=orthogonalEdgeStyle;rounded=0;orthogonalLoop=1;jettySize=auto;html=1;exitX=1;exitY=0.5;exitDx=0;exitDy=0;entryX=0;entryY=0.5;entryDx=0;entryDy=0;endArrow=classicThin;endFill=1;" edge="1" parent="_GYjczwFpr1CH4U-oiK9-1" source="_GYjczwFpr1CH4U-oiK9-17" target="_GYjczwFpr1CH4U-oiK9-21">
          <mxGeometry relative="1" as="geometry" />
        </mxCell>
        <mxCell id="_GYjczwFpr1CH4U-oiK9-30" value="" style="endArrow=classic;html=1;rounded=0;strokeColor=#000000;exitX=1;exitY=0.5;exitDx=0;exitDy=0;entryX=0;entryY=0.5;entryDx=0;entryDy=0;" edge="1" parent="_GYjczwFpr1CH4U-oiK9-1" source="_GYjczwFpr1CH4U-oiK9-22" target="_GYjczwFpr1CH4U-oiK9-33">
          <mxGeometry width="50" height="50" relative="1" as="geometry">
            <mxPoint x="440" y="390" as="sourcePoint" />
            <mxPoint x="704.79" y="300.4000000000001" as="targetPoint" />
          </mxGeometry>
        </mxCell>
        <mxCell id="_GYjczwFpr1CH4U-oiK9-31" value="Nebula" style="swimlane;html=1;startSize=20;" vertex="1" parent="_GYjczwFpr1CH4U-oiK9-1">
          <mxGeometry x="640" y="20" width="160" height="575" as="geometry" />
        </mxCell>
        <mxCell id="_GYjczwFpr1CH4U-oiK9-32" value="" style="edgeStyle=orthogonalEdgeStyle;rounded=0;orthogonalLoop=1;jettySize=auto;html=1;endArrow=classicThin;endFill=1;strokeColor=#000000;" edge="1" parent="_GYjczwFpr1CH4U-oiK9-31" source="_GYjczwFpr1CH4U-oiK9-33" target="_GYjczwFpr1CH4U-oiK9-34">
          <mxGeometry relative="1" as="geometry" />
        </mxCell>
        <mxCell id="_GYjczwFpr1CH4U-oiK9-33" value="任务启动接口" style="rounded=1;whiteSpace=wrap;html=1;shadow=0;labelBackgroundColor=none;strokeWidth=1;fontFamily=Verdana;fontSize=8;align=center;" vertex="1" parent="_GYjczwFpr1CH4U-oiK9-31">
          <mxGeometry x="20" y="260" width="120" height="40" as="geometry" />
        </mxCell>
        <mxCell id="_GYjczwFpr1CH4U-oiK9-34" value="视频分析任务" style="rounded=1;whiteSpace=wrap;html=1;shadow=0;labelBackgroundColor=none;strokeWidth=1;fontFamily=Verdana;fontSize=8;align=center;" vertex="1" parent="_GYjczwFpr1CH4U-oiK9-31">
          <mxGeometry x="20" y="345" width="120" height="40" as="geometry" />
        </mxCell>
        <mxCell id="_GYjczwFpr1CH4U-oiK9-35" style="edgeStyle=orthogonalEdgeStyle;rounded=0;orthogonalLoop=1;jettySize=auto;html=1;exitX=1;exitY=0.5;exitDx=0;exitDy=0;entryX=0;entryY=0.5;entryDx=0;entryDy=0;strokeColor=#FF9999;" edge="1" parent="_GYjczwFpr1CH4U-oiK9-1" source="_GYjczwFpr1CH4U-oiK9-24" target="_GYjczwFpr1CH4U-oiK9-34">
          <mxGeometry relative="1" as="geometry" />
        </mxCell>
      </root>
    </mxGraphModel>
  </diagram>
  <diagram id="UOu8P-YD1SYL0WA16KyQ" name="直接转流">
    <mxGraphModel dx="1428" dy="896" grid="1" gridSize="10" guides="1" tooltips="1" connect="1" arrows="1" fold="1" page="1" pageScale="1" pageWidth="827" pageHeight="1169" math="0" shadow="0">
      <root>
        <mxCell id="0" />
        <mxCell id="1" parent="0" />
        <mxCell id="aK_NCaUJe_9p5so_JFvS-1" value="视频处理流程" style="swimlane;html=1;childLayout=stackLayout;startSize=20;rounded=0;shadow=0;labelBackgroundColor=none;strokeWidth=1;fontFamily=Verdana;fontSize=8;align=center;" vertex="1" parent="1">
          <mxGeometry x="14" y="56" width="800" height="470" as="geometry" />
        </mxCell>
        <mxCell id="aK_NCaUJe_9p5so_JFvS-2" value="视频云" style="swimlane;html=1;startSize=20;" vertex="1" parent="aK_NCaUJe_9p5so_JFvS-1">
          <mxGeometry y="20" width="160" height="450" as="geometry" />
        </mxCell>
        <mxCell id="aK_NCaUJe_9p5so_JFvS-3" value="API接口" style="rounded=1;whiteSpace=wrap;html=1;shadow=0;labelBackgroundColor=none;strokeWidth=1;fontFamily=Verdana;fontSize=8;align=center;" vertex="1" parent="aK_NCaUJe_9p5so_JFvS-2">
          <mxGeometry x="65" y="90" width="30" height="230" as="geometry" />
        </mxCell>
        <mxCell id="aK_NCaUJe_9p5so_JFvS-4" style="edgeStyle=orthogonalEdgeStyle;rounded=0;orthogonalLoop=1;jettySize=auto;html=1;exitX=0.5;exitY=1;exitDx=0;exitDy=0;fontSize=12;strokeWidth=2;" edge="1" parent="aK_NCaUJe_9p5so_JFvS-2" source="aK_NCaUJe_9p5so_JFvS-3" target="aK_NCaUJe_9p5so_JFvS-3">
          <mxGeometry relative="1" as="geometry" />
        </mxCell>
        <mxCell id="aK_NCaUJe_9p5so_JFvS-5" value="视频处理服务" style="swimlane;html=1;startSize=20;" vertex="1" parent="aK_NCaUJe_9p5so_JFvS-1">
          <mxGeometry x="160" y="20" width="160" height="450" as="geometry" />
        </mxCell>
        <mxCell id="aK_NCaUJe_9p5so_JFvS-6" value="" style="edgeStyle=orthogonalEdgeStyle;rounded=0;orthogonalLoop=1;jettySize=auto;html=1;" edge="1" parent="aK_NCaUJe_9p5so_JFvS-5" source="aK_NCaUJe_9p5so_JFvS-7" target="aK_NCaUJe_9p5so_JFvS-9">
          <mxGeometry relative="1" as="geometry" />
        </mxCell>
        <mxCell id="aK_NCaUJe_9p5so_JFvS-7" value="启动视频流处理任务" style="rounded=1;whiteSpace=wrap;html=1;shadow=0;labelBackgroundColor=none;strokeWidth=1;fontFamily=Verdana;fontSize=8;align=center;" vertex="1" parent="aK_NCaUJe_9p5so_JFvS-5">
          <mxGeometry x="30" y="60" width="100" height="40" as="geometry" />
        </mxCell>
        <mxCell id="aK_NCaUJe_9p5so_JFvS-8" value="" style="edgeStyle=orthogonalEdgeStyle;rounded=0;orthogonalLoop=1;jettySize=auto;html=1;entryX=0.5;entryY=0;entryDx=0;entryDy=0;" edge="1" parent="aK_NCaUJe_9p5so_JFvS-5" source="aK_NCaUJe_9p5so_JFvS-9" target="aK_NCaUJe_9p5so_JFvS-12">
          <mxGeometry relative="1" as="geometry">
            <mxPoint x="80" y="220" as="targetPoint" />
          </mxGeometry>
        </mxCell>
        <mxCell id="aK_NCaUJe_9p5so_JFvS-9" value="获取播放地址" style="rounded=1;whiteSpace=wrap;html=1;shadow=0;labelBackgroundColor=none;strokeWidth=1;fontFamily=Verdana;fontSize=8;align=center;" vertex="1" parent="aK_NCaUJe_9p5so_JFvS-5">
          <mxGeometry x="30" y="140" width="100" height="40" as="geometry" />
        </mxCell>
        <mxCell id="aK_NCaUJe_9p5so_JFvS-10" value="" style="edgeStyle=orthogonalEdgeStyle;rounded=0;orthogonalLoop=1;jettySize=auto;html=1;entryX=0.5;entryY=0;entryDx=0;entryDy=0;exitX=0.5;exitY=1;exitDx=0;exitDy=0;" edge="1" parent="aK_NCaUJe_9p5so_JFvS-5" source="aK_NCaUJe_9p5so_JFvS-12" target="aK_NCaUJe_9p5so_JFvS-11">
          <mxGeometry relative="1" as="geometry">
            <mxPoint x="80" y="260" as="sourcePoint" />
            <mxPoint x="80" y="290" as="targetPoint" />
          </mxGeometry>
        </mxCell>
        <mxCell id="aK_NCaUJe_9p5so_JFvS-11" value="通知任务管理服务" style="rounded=1;whiteSpace=wrap;html=1;shadow=0;labelBackgroundColor=none;strokeWidth=1;fontFamily=Verdana;fontSize=8;align=center;" vertex="1" parent="aK_NCaUJe_9p5so_JFvS-5">
          <mxGeometry x="30" y="360" width="100" height="40" as="geometry" />
        </mxCell>
        <mxCell id="aK_NCaUJe_9p5so_JFvS-12" value="直播流转rtsp流并推送至rtsp流服务器" style="rounded=1;whiteSpace=wrap;html=1;shadow=0;labelBackgroundColor=none;strokeWidth=1;fontFamily=Verdana;fontSize=8;align=center;" vertex="1" parent="aK_NCaUJe_9p5so_JFvS-5">
          <mxGeometry x="20" y="229" width="120" height="40" as="geometry" />
        </mxCell>
        <mxCell id="aK_NCaUJe_9p5so_JFvS-13" value="任务管理服务" style="swimlane;html=1;startSize=20;" vertex="1" parent="aK_NCaUJe_9p5so_JFvS-1">
          <mxGeometry x="320" y="20" width="160" height="450" as="geometry" />
        </mxCell>
        <mxCell id="aK_NCaUJe_9p5so_JFvS-14" value="触发指定设备分析任务" style="rounded=1;whiteSpace=wrap;html=1;shadow=0;labelBackgroundColor=none;strokeWidth=1;fontFamily=Verdana;fontSize=8;align=center;" vertex="1" parent="aK_NCaUJe_9p5so_JFvS-13">
          <mxGeometry x="40" y="60" width="100" height="40" as="geometry" />
        </mxCell>
        <mxCell id="aK_NCaUJe_9p5so_JFvS-15" value="" style="edgeStyle=orthogonalEdgeStyle;rounded=0;orthogonalLoop=1;jettySize=auto;html=1;endArrow=classicThin;endFill=1;strokeColor=#000000;" edge="1" parent="aK_NCaUJe_9p5so_JFvS-13" source="aK_NCaUJe_9p5so_JFvS-16" target="aK_NCaUJe_9p5so_JFvS-17">
          <mxGeometry relative="1" as="geometry" />
        </mxCell>
        <mxCell id="aK_NCaUJe_9p5so_JFvS-16" value="接到新视频流请求" style="rounded=1;whiteSpace=wrap;html=1;shadow=0;labelBackgroundColor=none;strokeWidth=1;fontFamily=Verdana;fontSize=8;align=center;" vertex="1" parent="aK_NCaUJe_9p5so_JFvS-13">
          <mxGeometry x="20" y="130" width="120" height="40" as="geometry" />
        </mxCell>
        <mxCell id="aK_NCaUJe_9p5so_JFvS-17" value="调用Nebula接口启动分析任务" style="rounded=1;whiteSpace=wrap;html=1;shadow=0;labelBackgroundColor=none;strokeWidth=1;fontFamily=Verdana;fontSize=8;align=center;" vertex="1" parent="aK_NCaUJe_9p5so_JFvS-13">
          <mxGeometry x="20" y="200" width="120" height="40" as="geometry" />
        </mxCell>
        <mxCell id="aK_NCaUJe_9p5so_JFvS-18" value="RTSP视频流服务器" style="swimlane;html=1;startSize=20;" vertex="1" parent="aK_NCaUJe_9p5so_JFvS-1">
          <mxGeometry x="480" y="20" width="160" height="450" as="geometry" />
        </mxCell>
        <mxCell id="aK_NCaUJe_9p5so_JFvS-19" value="rtsp视频流" style="shape=document;whiteSpace=wrap;html=1;boundedLbl=1;" vertex="1" parent="aK_NCaUJe_9p5so_JFvS-18">
          <mxGeometry x="39" y="290" width="82" height="80" as="geometry" />
        </mxCell>
        <mxCell id="aK_NCaUJe_9p5so_JFvS-20" value="" style="endArrow=classic;html=1;rounded=0;entryX=1;entryY=0.5;entryDx=0;entryDy=0;exitX=0;exitY=0.5;exitDx=0;exitDy=0;" edge="1" parent="aK_NCaUJe_9p5so_JFvS-1" source="aK_NCaUJe_9p5so_JFvS-14" target="aK_NCaUJe_9p5so_JFvS-7">
          <mxGeometry width="50" height="50" relative="1" as="geometry">
            <mxPoint x="440" y="390" as="sourcePoint" />
            <mxPoint x="490" y="340" as="targetPoint" />
          </mxGeometry>
        </mxCell>
        <mxCell id="aK_NCaUJe_9p5so_JFvS-21" value="" style="endArrow=classic;html=1;rounded=0;exitX=0;exitY=0.25;exitDx=0;exitDy=0;entryX=1;entryY=0.25;entryDx=0;entryDy=0;" edge="1" parent="aK_NCaUJe_9p5so_JFvS-1" source="aK_NCaUJe_9p5so_JFvS-9" target="aK_NCaUJe_9p5so_JFvS-3">
          <mxGeometry width="50" height="50" relative="1" as="geometry">
            <mxPoint x="440" y="390" as="sourcePoint" />
            <mxPoint x="100" y="170" as="targetPoint" />
          </mxGeometry>
        </mxCell>
        <mxCell id="aK_NCaUJe_9p5so_JFvS-22" value="" style="endArrow=classicThin;dashed=1;html=1;rounded=0;entryX=0;entryY=0.75;entryDx=0;entryDy=0;endFill=1;" edge="1" parent="aK_NCaUJe_9p5so_JFvS-1" target="aK_NCaUJe_9p5so_JFvS-9">
          <mxGeometry width="50" height="50" relative="1" as="geometry">
            <mxPoint x="100" y="190" as="sourcePoint" />
            <mxPoint x="490" y="340" as="targetPoint" />
          </mxGeometry>
        </mxCell>
        <mxCell id="aK_NCaUJe_9p5so_JFvS-23" style="edgeStyle=orthogonalEdgeStyle;rounded=0;orthogonalLoop=1;jettySize=auto;html=1;entryX=0;entryY=0.5;entryDx=0;entryDy=0;endArrow=classicThin;endFill=1;strokeColor=#FF9999;exitX=1;exitY=0.5;exitDx=0;exitDy=0;strokeWidth=2;" edge="1" parent="aK_NCaUJe_9p5so_JFvS-1" source="aK_NCaUJe_9p5so_JFvS-12" target="aK_NCaUJe_9p5so_JFvS-19">
          <mxGeometry relative="1" as="geometry">
            <mxPoint x="290" y="480" as="sourcePoint" />
          </mxGeometry>
        </mxCell>
        <mxCell id="aK_NCaUJe_9p5so_JFvS-24" style="edgeStyle=orthogonalEdgeStyle;rounded=0;orthogonalLoop=1;jettySize=auto;html=1;exitX=1;exitY=0.5;exitDx=0;exitDy=0;entryX=0;entryY=0.5;entryDx=0;entryDy=0;endArrow=classicThin;endFill=1;" edge="1" parent="aK_NCaUJe_9p5so_JFvS-1" source="aK_NCaUJe_9p5so_JFvS-11" target="aK_NCaUJe_9p5so_JFvS-16">
          <mxGeometry relative="1" as="geometry" />
        </mxCell>
        <mxCell id="aK_NCaUJe_9p5so_JFvS-25" value="" style="endArrow=classic;html=1;rounded=0;strokeColor=#000000;exitX=1;exitY=0.5;exitDx=0;exitDy=0;entryX=0;entryY=0.5;entryDx=0;entryDy=0;" edge="1" parent="aK_NCaUJe_9p5so_JFvS-1" source="aK_NCaUJe_9p5so_JFvS-17" target="aK_NCaUJe_9p5so_JFvS-28">
          <mxGeometry width="50" height="50" relative="1" as="geometry">
            <mxPoint x="440" y="390" as="sourcePoint" />
            <mxPoint x="704.79" y="300.4000000000001" as="targetPoint" />
          </mxGeometry>
        </mxCell>
        <mxCell id="aK_NCaUJe_9p5so_JFvS-26" value="Nebula" style="swimlane;html=1;startSize=20;" vertex="1" parent="aK_NCaUJe_9p5so_JFvS-1">
          <mxGeometry x="640" y="20" width="160" height="450" as="geometry" />
        </mxCell>
        <mxCell id="aK_NCaUJe_9p5so_JFvS-27" value="" style="edgeStyle=orthogonalEdgeStyle;rounded=0;orthogonalLoop=1;jettySize=auto;html=1;endArrow=classicThin;endFill=1;strokeColor=#000000;" edge="1" parent="aK_NCaUJe_9p5so_JFvS-26" source="aK_NCaUJe_9p5so_JFvS-28" target="aK_NCaUJe_9p5so_JFvS-29">
          <mxGeometry relative="1" as="geometry" />
        </mxCell>
        <mxCell id="aK_NCaUJe_9p5so_JFvS-28" value="任务启动接口" style="rounded=1;whiteSpace=wrap;html=1;shadow=0;labelBackgroundColor=none;strokeWidth=1;fontFamily=Verdana;fontSize=8;align=center;" vertex="1" parent="aK_NCaUJe_9p5so_JFvS-26">
          <mxGeometry x="20" y="200" width="120" height="40" as="geometry" />
        </mxCell>
        <mxCell id="aK_NCaUJe_9p5so_JFvS-29" value="视频分析任务" style="rounded=1;whiteSpace=wrap;html=1;shadow=0;labelBackgroundColor=none;strokeWidth=1;fontFamily=Verdana;fontSize=8;align=center;" vertex="1" parent="aK_NCaUJe_9p5so_JFvS-26">
          <mxGeometry x="20" y="290" width="120" height="40" as="geometry" />
        </mxCell>
        <mxCell id="aK_NCaUJe_9p5so_JFvS-30" style="edgeStyle=orthogonalEdgeStyle;rounded=0;orthogonalLoop=1;jettySize=auto;html=1;exitX=1;exitY=0.5;exitDx=0;exitDy=0;entryX=0;entryY=0.5;entryDx=0;entryDy=0;strokeColor=#FF9999;strokeWidth=2;" edge="1" parent="aK_NCaUJe_9p5so_JFvS-1" source="aK_NCaUJe_9p5so_JFvS-19" target="aK_NCaUJe_9p5so_JFvS-29">
          <mxGeometry relative="1" as="geometry" />
        </mxCell>
      </root>
    </mxGraphModel>
  </diagram>
  <diagram id="cBsb1XW-jYA-2BAWNOdt" name="抓拍分析方案1">
    <mxGraphModel dx="1428" dy="896" grid="1" gridSize="10" guides="1" tooltips="1" connect="1" arrows="1" fold="1" page="1" pageScale="1" pageWidth="827" pageHeight="1169" math="0" shadow="0">
      <root>
        <mxCell id="0" />
        <mxCell id="1" parent="0" />
        <mxCell id="fHmzVRuzYUkT_qIklqY0-1" value="抓拍分析处理" style="swimlane;html=1;childLayout=stackLayout;startSize=20;rounded=0;shadow=0;labelBackgroundColor=none;strokeWidth=1;fontFamily=Verdana;fontSize=8;align=center;" vertex="1" parent="1">
          <mxGeometry x="14" y="56" width="800" height="834" as="geometry" />
        </mxCell>
        <mxCell id="fHmzVRuzYUkT_qIklqY0-2" value="视频云" style="swimlane;html=1;startSize=20;" vertex="1" parent="fHmzVRuzYUkT_qIklqY0-1">
          <mxGeometry y="20" width="160" height="814" as="geometry" />
        </mxCell>
        <mxCell id="fHmzVRuzYUkT_qIklqY0-3" value="API接口" style="rounded=1;whiteSpace=wrap;html=1;shadow=0;labelBackgroundColor=none;strokeWidth=1;fontFamily=Verdana;fontSize=8;align=center;" vertex="1" parent="fHmzVRuzYUkT_qIklqY0-2">
          <mxGeometry x="65" y="90" width="30" height="230" as="geometry" />
        </mxCell>
        <mxCell id="fHmzVRuzYUkT_qIklqY0-4" style="edgeStyle=orthogonalEdgeStyle;rounded=0;orthogonalLoop=1;jettySize=auto;html=1;exitX=0.5;exitY=1;exitDx=0;exitDy=0;fontSize=12;strokeWidth=2;" edge="1" parent="fHmzVRuzYUkT_qIklqY0-2" source="fHmzVRuzYUkT_qIklqY0-3" target="fHmzVRuzYUkT_qIklqY0-3">
          <mxGeometry relative="1" as="geometry" />
        </mxCell>
        <mxCell id="fHmzVRuzYUkT_qIklqY0-5" value="视图处理服务" style="swimlane;html=1;startSize=20;" vertex="1" parent="fHmzVRuzYUkT_qIklqY0-1">
          <mxGeometry x="160" y="20" width="210" height="814" as="geometry" />
        </mxCell>
        <mxCell id="fHmzVRuzYUkT_qIklqY0-6" value="" style="edgeStyle=orthogonalEdgeStyle;rounded=0;orthogonalLoop=1;jettySize=auto;html=1;" edge="1" parent="fHmzVRuzYUkT_qIklqY0-5" source="fHmzVRuzYUkT_qIklqY0-7" target="fHmzVRuzYUkT_qIklqY0-9">
          <mxGeometry relative="1" as="geometry" />
        </mxCell>
        <mxCell id="fHmzVRuzYUkT_qIklqY0-7" value="获取抓拍地址" style="rounded=1;whiteSpace=wrap;html=1;shadow=0;labelBackgroundColor=none;strokeWidth=1;fontFamily=Verdana;fontSize=8;align=center;" vertex="1" parent="fHmzVRuzYUkT_qIklqY0-5">
          <mxGeometry x="30" y="60" width="100" height="40" as="geometry" />
        </mxCell>
        <mxCell id="fHmzVRuzYUkT_qIklqY0-8" value="Y" style="edgeStyle=orthogonalEdgeStyle;rounded=0;orthogonalLoop=1;jettySize=auto;html=1;entryX=0.5;entryY=0;entryDx=0;entryDy=0;startArrow=none;" edge="1" parent="fHmzVRuzYUkT_qIklqY0-5" source="fHmzVRuzYUkT_qIklqY0-32" target="fHmzVRuzYUkT_qIklqY0-12">
          <mxGeometry x="-0.6" relative="1" as="geometry">
            <mxPoint x="80" y="220" as="targetPoint" />
            <mxPoint as="offset" />
          </mxGeometry>
        </mxCell>
        <mxCell id="fHmzVRuzYUkT_qIklqY0-34" value="" style="edgeStyle=orthogonalEdgeStyle;rounded=0;orthogonalLoop=1;jettySize=auto;html=1;" edge="1" parent="fHmzVRuzYUkT_qIklqY0-5" source="fHmzVRuzYUkT_qIklqY0-9" target="fHmzVRuzYUkT_qIklqY0-32">
          <mxGeometry relative="1" as="geometry" />
        </mxCell>
        <mxCell id="fHmzVRuzYUkT_qIklqY0-9" value="抓拍图片，并获得图片地址" style="rounded=1;whiteSpace=wrap;html=1;shadow=0;labelBackgroundColor=none;strokeWidth=1;fontFamily=Verdana;fontSize=8;align=center;" vertex="1" parent="fHmzVRuzYUkT_qIklqY0-5">
          <mxGeometry x="30" y="140" width="100" height="40" as="geometry" />
        </mxCell>
        <mxCell id="fHmzVRuzYUkT_qIklqY0-10" value="" style="edgeStyle=orthogonalEdgeStyle;rounded=0;orthogonalLoop=1;jettySize=auto;html=1;entryX=0.5;entryY=0;entryDx=0;entryDy=0;exitX=0.5;exitY=1;exitDx=0;exitDy=0;" edge="1" parent="fHmzVRuzYUkT_qIklqY0-5" source="fHmzVRuzYUkT_qIklqY0-12" target="fHmzVRuzYUkT_qIklqY0-11">
          <mxGeometry relative="1" as="geometry">
            <mxPoint x="80" y="260" as="sourcePoint" />
            <mxPoint x="80" y="290" as="targetPoint" />
          </mxGeometry>
        </mxCell>
        <mxCell id="iRn20m7WWjoMM36yX9Bv-2" value="" style="edgeStyle=orthogonalEdgeStyle;rounded=0;orthogonalLoop=1;jettySize=auto;html=1;strokeColor=#000000;strokeWidth=1;" edge="1" parent="fHmzVRuzYUkT_qIklqY0-5" source="fHmzVRuzYUkT_qIklqY0-11" target="iRn20m7WWjoMM36yX9Bv-1">
          <mxGeometry relative="1" as="geometry" />
        </mxCell>
        <mxCell id="fHmzVRuzYUkT_qIklqY0-11" value="调用图片解析接口" style="rounded=1;whiteSpace=wrap;html=1;shadow=0;labelBackgroundColor=none;strokeWidth=1;fontFamily=Verdana;fontSize=8;align=center;" vertex="1" parent="fHmzVRuzYUkT_qIklqY0-5">
          <mxGeometry x="20" y="374" width="120" height="40" as="geometry" />
        </mxCell>
        <mxCell id="fHmzVRuzYUkT_qIklqY0-12" value="图片转成base64" style="rounded=1;whiteSpace=wrap;html=1;shadow=0;labelBackgroundColor=none;strokeWidth=1;fontFamily=Verdana;fontSize=8;align=center;" vertex="1" parent="fHmzVRuzYUkT_qIklqY0-5">
          <mxGeometry x="20" y="304" width="120" height="40" as="geometry" />
        </mxCell>
        <mxCell id="fHmzVRuzYUkT_qIklqY0-32" value="抓拍成功？" style="rhombus;whiteSpace=wrap;html=1;" vertex="1" parent="fHmzVRuzYUkT_qIklqY0-5">
          <mxGeometry x="30" y="214" width="100" height="46" as="geometry" />
        </mxCell>
        <mxCell id="fHmzVRuzYUkT_qIklqY0-36" value="N" style="edgeStyle=orthogonalEdgeStyle;rounded=0;orthogonalLoop=1;jettySize=auto;html=1;endArrow=classicThin;endFill=1;strokeColor=#000000;exitX=1;exitY=0.5;exitDx=0;exitDy=0;strokeWidth=1;entryX=1;entryY=0.5;entryDx=0;entryDy=0;" edge="1" parent="fHmzVRuzYUkT_qIklqY0-5" source="fHmzVRuzYUkT_qIklqY0-32" target="fHmzVRuzYUkT_qIklqY0-9">
          <mxGeometry x="-0.651" y="3" relative="1" as="geometry">
            <mxPoint x="150" y="360" as="sourcePoint" />
            <mxPoint x="136" y="154" as="targetPoint" />
            <Array as="points">
              <mxPoint x="166" y="237" />
              <mxPoint x="166" y="160" />
            </Array>
            <mxPoint as="offset" />
          </mxGeometry>
        </mxCell>
        <mxCell id="fHmzVRuzYUkT_qIklqY0-61" value="最多重试3次" style="text;html=1;strokeColor=none;fillColor=none;align=center;verticalAlign=middle;whiteSpace=wrap;rounded=0;" vertex="1" parent="fHmzVRuzYUkT_qIklqY0-5">
          <mxGeometry x="93" y="184" width="74" height="30" as="geometry" />
        </mxCell>
        <mxCell id="iRn20m7WWjoMM36yX9Bv-1" value="&lt;font face=&quot;Verdana&quot;&gt;&lt;span style=&quot;font-size: 8px;&quot;&gt;推送分析结果&lt;/span&gt;&lt;/font&gt;" style="rounded=1;whiteSpace=wrap;html=1;" vertex="1" parent="fHmzVRuzYUkT_qIklqY0-5">
          <mxGeometry x="20" y="464" width="120" height="36" as="geometry" />
        </mxCell>
        <mxCell id="fHmzVRuzYUkT_qIklqY0-20" value="" style="endArrow=classic;html=1;rounded=0;entryX=1;entryY=0.5;entryDx=0;entryDy=0;exitX=0;exitY=0.5;exitDx=0;exitDy=0;" edge="1" parent="fHmzVRuzYUkT_qIklqY0-1" source="fHmzVRuzYUkT_qIklqY0-14" target="fHmzVRuzYUkT_qIklqY0-7">
          <mxGeometry width="50" height="50" relative="1" as="geometry">
            <mxPoint x="440" y="390" as="sourcePoint" />
            <mxPoint x="490" y="340" as="targetPoint" />
          </mxGeometry>
        </mxCell>
        <mxCell id="fHmzVRuzYUkT_qIklqY0-21" value="" style="endArrow=classic;html=1;rounded=0;exitX=0;exitY=0.25;exitDx=0;exitDy=0;entryX=1;entryY=0.25;entryDx=0;entryDy=0;" edge="1" parent="fHmzVRuzYUkT_qIklqY0-1" source="fHmzVRuzYUkT_qIklqY0-9" target="fHmzVRuzYUkT_qIklqY0-3">
          <mxGeometry width="50" height="50" relative="1" as="geometry">
            <mxPoint x="440" y="390" as="sourcePoint" />
            <mxPoint x="100" y="170" as="targetPoint" />
          </mxGeometry>
        </mxCell>
        <mxCell id="fHmzVRuzYUkT_qIklqY0-22" value="" style="endArrow=classicThin;dashed=1;html=1;rounded=0;entryX=0;entryY=0.75;entryDx=0;entryDy=0;endFill=1;" edge="1" parent="fHmzVRuzYUkT_qIklqY0-1" target="fHmzVRuzYUkT_qIklqY0-9">
          <mxGeometry width="50" height="50" relative="1" as="geometry">
            <mxPoint x="100" y="190" as="sourcePoint" />
            <mxPoint x="490" y="340" as="targetPoint" />
          </mxGeometry>
        </mxCell>
        <mxCell id="fHmzVRuzYUkT_qIklqY0-13" value="任务管理服务" style="swimlane;html=1;startSize=20;" vertex="1" parent="fHmzVRuzYUkT_qIklqY0-1">
          <mxGeometry x="370" y="20" width="250" height="814" as="geometry" />
        </mxCell>
        <mxCell id="fHmzVRuzYUkT_qIklqY0-14" value="触发指定设备分析任务" style="rounded=1;whiteSpace=wrap;html=1;shadow=0;labelBackgroundColor=none;strokeWidth=1;fontFamily=Verdana;fontSize=8;align=center;" vertex="1" parent="fHmzVRuzYUkT_qIklqY0-13">
          <mxGeometry x="40" y="60" width="100" height="40" as="geometry" />
        </mxCell>
        <mxCell id="iRn20m7WWjoMM36yX9Bv-6" value="" style="edgeStyle=orthogonalEdgeStyle;rounded=0;orthogonalLoop=1;jettySize=auto;html=1;strokeColor=#000000;strokeWidth=1;" edge="1" parent="fHmzVRuzYUkT_qIklqY0-13" source="fHmzVRuzYUkT_qIklqY0-44" target="iRn20m7WWjoMM36yX9Bv-4">
          <mxGeometry relative="1" as="geometry" />
        </mxCell>
        <mxCell id="fHmzVRuzYUkT_qIklqY0-44" value="&lt;span style=&quot;font-family: Verdana; font-size: 8px;&quot;&gt;结束分析结果&lt;/span&gt;" style="rounded=1;whiteSpace=wrap;html=1;" vertex="1" parent="fHmzVRuzYUkT_qIklqY0-13">
          <mxGeometry x="16" y="464" width="120" height="36" as="geometry" />
        </mxCell>
        <mxCell id="fHmzVRuzYUkT_qIklqY0-47" value="&lt;span style=&quot;&quot;&gt;有符合条件的属性？&lt;/span&gt;" style="rhombus;whiteSpace=wrap;html=1;" vertex="1" parent="fHmzVRuzYUkT_qIklqY0-13">
          <mxGeometry x="16" y="585" width="120" height="54" as="geometry" />
        </mxCell>
        <mxCell id="fHmzVRuzYUkT_qIklqY0-48" value="" style="edgeStyle=orthogonalEdgeStyle;rounded=0;orthogonalLoop=1;jettySize=auto;html=1;strokeColor=#000000;strokeWidth=1;startArrow=none;" edge="1" parent="fHmzVRuzYUkT_qIklqY0-13" source="iRn20m7WWjoMM36yX9Bv-4" target="fHmzVRuzYUkT_qIklqY0-47">
          <mxGeometry relative="1" as="geometry" />
        </mxCell>
        <mxCell id="fHmzVRuzYUkT_qIklqY0-49" value="上报告警" style="rounded=1;whiteSpace=wrap;html=1;" vertex="1" parent="fHmzVRuzYUkT_qIklqY0-13">
          <mxGeometry x="16" y="735" width="120" height="36" as="geometry" />
        </mxCell>
        <mxCell id="fHmzVRuzYUkT_qIklqY0-58" value="保持图片" style="rounded=1;whiteSpace=wrap;html=1;" vertex="1" parent="fHmzVRuzYUkT_qIklqY0-13">
          <mxGeometry x="16" y="665" width="120" height="36" as="geometry" />
        </mxCell>
        <mxCell id="fHmzVRuzYUkT_qIklqY0-60" value="" style="edgeStyle=orthogonalEdgeStyle;rounded=0;orthogonalLoop=1;jettySize=auto;html=1;strokeColor=#000000;strokeWidth=1;" edge="1" parent="fHmzVRuzYUkT_qIklqY0-13" source="fHmzVRuzYUkT_qIklqY0-47" target="fHmzVRuzYUkT_qIklqY0-58">
          <mxGeometry relative="1" as="geometry" />
        </mxCell>
        <mxCell id="fHmzVRuzYUkT_qIklqY0-50" value="" style="edgeStyle=orthogonalEdgeStyle;rounded=0;orthogonalLoop=1;jettySize=auto;html=1;strokeColor=#000000;strokeWidth=1;startArrow=none;" edge="1" parent="fHmzVRuzYUkT_qIklqY0-13" source="fHmzVRuzYUkT_qIklqY0-58" target="fHmzVRuzYUkT_qIklqY0-49">
          <mxGeometry relative="1" as="geometry" />
        </mxCell>
        <mxCell id="iRn20m7WWjoMM36yX9Bv-3" value="结束" style="ellipse;whiteSpace=wrap;html=1;aspect=fixed;" vertex="1" parent="fHmzVRuzYUkT_qIklqY0-13">
          <mxGeometry x="186" y="587.5" width="49" height="49" as="geometry" />
        </mxCell>
        <mxCell id="fHmzVRuzYUkT_qIklqY0-54" value="" style="edgeStyle=orthogonalEdgeStyle;rounded=0;orthogonalLoop=1;jettySize=auto;html=1;strokeColor=#000000;strokeWidth=1;" edge="1" parent="fHmzVRuzYUkT_qIklqY0-13" source="fHmzVRuzYUkT_qIklqY0-47" target="iRn20m7WWjoMM36yX9Bv-3">
          <mxGeometry relative="1" as="geometry">
            <mxPoint x="176" y="612" as="targetPoint" />
          </mxGeometry>
        </mxCell>
        <mxCell id="iRn20m7WWjoMM36yX9Bv-4" value="&lt;span style=&quot;font-family: Verdana; font-size: 8px;&quot;&gt;分析结构化数据&lt;/span&gt;" style="rounded=1;whiteSpace=wrap;html=1;" vertex="1" parent="fHmzVRuzYUkT_qIklqY0-13">
          <mxGeometry x="16" y="524" width="120" height="36" as="geometry" />
        </mxCell>
        <mxCell id="fHmzVRuzYUkT_qIklqY0-26" value="Nebula" style="swimlane;html=1;startSize=20;" vertex="1" parent="fHmzVRuzYUkT_qIklqY0-1">
          <mxGeometry x="620" y="20" width="180" height="814" as="geometry" />
        </mxCell>
        <mxCell id="fHmzVRuzYUkT_qIklqY0-29" value="人体结构化解析接口" style="rounded=1;whiteSpace=wrap;html=1;shadow=0;labelBackgroundColor=none;strokeWidth=1;fontFamily=Verdana;fontSize=8;align=center;" vertex="1" parent="fHmzVRuzYUkT_qIklqY0-26">
          <mxGeometry x="30" y="374" width="120" height="40" as="geometry" />
        </mxCell>
        <mxCell id="fHmzVRuzYUkT_qIklqY0-37" value="" style="endArrow=classic;html=1;rounded=0;strokeColor=#000000;strokeWidth=1;exitX=1;exitY=0.25;exitDx=0;exitDy=0;entryX=0;entryY=0.25;entryDx=0;entryDy=0;" edge="1" parent="fHmzVRuzYUkT_qIklqY0-1" source="fHmzVRuzYUkT_qIklqY0-11" target="fHmzVRuzYUkT_qIklqY0-29">
          <mxGeometry width="50" height="50" relative="1" as="geometry">
            <mxPoint x="296" y="334" as="sourcePoint" />
            <mxPoint x="556" y="334" as="targetPoint" />
          </mxGeometry>
        </mxCell>
        <mxCell id="fHmzVRuzYUkT_qIklqY0-39" value="请求解析图片结构化" style="edgeLabel;html=1;align=center;verticalAlign=middle;resizable=0;points=[];" vertex="1" connectable="0" parent="fHmzVRuzYUkT_qIklqY0-37">
          <mxGeometry x="0.25" relative="1" as="geometry">
            <mxPoint x="-24" y="-10" as="offset" />
          </mxGeometry>
        </mxCell>
        <mxCell id="fHmzVRuzYUkT_qIklqY0-38" value="" style="endArrow=classic;html=1;rounded=0;strokeColor=#000000;strokeWidth=1;exitX=0;exitY=0.75;exitDx=0;exitDy=0;entryX=1;entryY=0.75;entryDx=0;entryDy=0;dashed=1;" edge="1" parent="fHmzVRuzYUkT_qIklqY0-1" source="fHmzVRuzYUkT_qIklqY0-29" target="fHmzVRuzYUkT_qIklqY0-11">
          <mxGeometry width="50" height="50" relative="1" as="geometry">
            <mxPoint x="316" y="344" as="sourcePoint" />
            <mxPoint x="426" y="454" as="targetPoint" />
          </mxGeometry>
        </mxCell>
        <mxCell id="fHmzVRuzYUkT_qIklqY0-40" value="返回人体结构化解析结果" style="edgeLabel;html=1;align=center;verticalAlign=middle;resizable=0;points=[];" vertex="1" connectable="0" parent="fHmzVRuzYUkT_qIklqY0-38">
          <mxGeometry x="-0.1538" y="1" relative="1" as="geometry">
            <mxPoint x="-5" y="9" as="offset" />
          </mxGeometry>
        </mxCell>
        <mxCell id="fHmzVRuzYUkT_qIklqY0-45" value="" style="edgeStyle=orthogonalEdgeStyle;rounded=0;orthogonalLoop=1;jettySize=auto;html=1;strokeColor=#000000;strokeWidth=1;exitX=1;exitY=0.5;exitDx=0;exitDy=0;" edge="1" parent="fHmzVRuzYUkT_qIklqY0-1" source="iRn20m7WWjoMM36yX9Bv-1" target="fHmzVRuzYUkT_qIklqY0-44">
          <mxGeometry relative="1" as="geometry" />
        </mxCell>
      </root>
    </mxGraphModel>
  </diagram>
  <diagram id="itxaNtluk7R8hetnEHVN" name="抓拍分析方案2">
    <mxGraphModel dx="1428" dy="896" grid="1" gridSize="10" guides="1" tooltips="1" connect="1" arrows="1" fold="1" page="1" pageScale="1" pageWidth="827" pageHeight="1169" math="0" shadow="0">
      <root>
        <mxCell id="0" />
        <mxCell id="1" parent="0" />
        <mxCell id="-LnWDCPz_Ko7V9wjN6Jq-1" value="抓拍分析处理" style="swimlane;html=1;childLayout=stackLayout;startSize=20;rounded=0;shadow=0;labelBackgroundColor=none;strokeWidth=1;fontFamily=Verdana;fontSize=8;align=center;" vertex="1" parent="1">
          <mxGeometry x="14" y="56" width="1110" height="764" as="geometry" />
        </mxCell>
        <mxCell id="-LnWDCPz_Ko7V9wjN6Jq-2" value="视频云" style="swimlane;html=1;startSize=20;" vertex="1" parent="-LnWDCPz_Ko7V9wjN6Jq-1">
          <mxGeometry y="20" width="160" height="744" as="geometry" />
        </mxCell>
        <mxCell id="-LnWDCPz_Ko7V9wjN6Jq-3" value="API接口" style="rounded=1;whiteSpace=wrap;html=1;shadow=0;labelBackgroundColor=none;strokeWidth=1;fontFamily=Verdana;fontSize=8;align=center;" vertex="1" parent="-LnWDCPz_Ko7V9wjN6Jq-2">
          <mxGeometry x="65" y="90" width="30" height="230" as="geometry" />
        </mxCell>
        <mxCell id="-LnWDCPz_Ko7V9wjN6Jq-4" style="edgeStyle=orthogonalEdgeStyle;rounded=0;orthogonalLoop=1;jettySize=auto;html=1;exitX=0.5;exitY=1;exitDx=0;exitDy=0;fontSize=12;strokeWidth=2;" edge="1" parent="-LnWDCPz_Ko7V9wjN6Jq-2" source="-LnWDCPz_Ko7V9wjN6Jq-3" target="-LnWDCPz_Ko7V9wjN6Jq-3">
          <mxGeometry relative="1" as="geometry" />
        </mxCell>
        <mxCell id="-LnWDCPz_Ko7V9wjN6Jq-50" value="抓拍任务结束？" style="rhombus;whiteSpace=wrap;html=1;" vertex="1" parent="-LnWDCPz_Ko7V9wjN6Jq-2">
          <mxGeometry x="15" y="524" width="130" height="46" as="geometry" />
        </mxCell>
        <mxCell id="-LnWDCPz_Ko7V9wjN6Jq-27" value="" style="endArrow=classic;html=1;rounded=0;entryX=1;entryY=0.5;entryDx=0;entryDy=0;exitX=0;exitY=0.5;exitDx=0;exitDy=0;" edge="1" parent="-LnWDCPz_Ko7V9wjN6Jq-1" source="-LnWDCPz_Ko7V9wjN6Jq-31" target="-LnWDCPz_Ko7V9wjN6Jq-7">
          <mxGeometry width="50" height="50" relative="1" as="geometry">
            <mxPoint x="440" y="390" as="sourcePoint" />
            <mxPoint x="490" y="340" as="targetPoint" />
          </mxGeometry>
        </mxCell>
        <mxCell id="-LnWDCPz_Ko7V9wjN6Jq-41" value="任务Id，摄像机id，视频云账号，抓拍数量，抓拍间隔" style="edgeLabel;html=1;align=left;verticalAlign=middle;resizable=0;points=[];" vertex="1" connectable="0" parent="-LnWDCPz_Ko7V9wjN6Jq-27">
          <mxGeometry x="0.2376" y="-3" relative="1" as="geometry">
            <mxPoint x="-60" y="-17" as="offset" />
          </mxGeometry>
        </mxCell>
        <mxCell id="-LnWDCPz_Ko7V9wjN6Jq-28" value="" style="endArrow=classic;html=1;rounded=0;exitX=0;exitY=0.25;exitDx=0;exitDy=0;entryX=1;entryY=0.25;entryDx=0;entryDy=0;" edge="1" parent="-LnWDCPz_Ko7V9wjN6Jq-1" source="-LnWDCPz_Ko7V9wjN6Jq-10" target="-LnWDCPz_Ko7V9wjN6Jq-3">
          <mxGeometry width="50" height="50" relative="1" as="geometry">
            <mxPoint x="440" y="390" as="sourcePoint" />
            <mxPoint x="100" y="170" as="targetPoint" />
          </mxGeometry>
        </mxCell>
        <mxCell id="-LnWDCPz_Ko7V9wjN6Jq-29" value="" style="endArrow=classicThin;dashed=1;html=1;rounded=0;entryX=0;entryY=0.75;entryDx=0;entryDy=0;endFill=1;" edge="1" parent="-LnWDCPz_Ko7V9wjN6Jq-1" target="-LnWDCPz_Ko7V9wjN6Jq-10">
          <mxGeometry width="50" height="50" relative="1" as="geometry">
            <mxPoint x="100" y="190" as="sourcePoint" />
            <mxPoint x="490" y="340" as="targetPoint" />
          </mxGeometry>
        </mxCell>
        <mxCell id="-LnWDCPz_Ko7V9wjN6Jq-5" value="抓拍服务" style="swimlane;html=1;startSize=20;" vertex="1" parent="-LnWDCPz_Ko7V9wjN6Jq-1">
          <mxGeometry x="160" y="20" width="220" height="744" as="geometry" />
        </mxCell>
        <mxCell id="-LnWDCPz_Ko7V9wjN6Jq-6" value="" style="edgeStyle=orthogonalEdgeStyle;rounded=0;orthogonalLoop=1;jettySize=auto;html=1;" edge="1" parent="-LnWDCPz_Ko7V9wjN6Jq-5" source="-LnWDCPz_Ko7V9wjN6Jq-7" target="-LnWDCPz_Ko7V9wjN6Jq-10">
          <mxGeometry relative="1" as="geometry" />
        </mxCell>
        <mxCell id="-LnWDCPz_Ko7V9wjN6Jq-7" value="启动抓拍任务" style="rounded=1;whiteSpace=wrap;html=1;shadow=0;labelBackgroundColor=none;strokeWidth=1;fontFamily=Verdana;fontSize=8;align=center;" vertex="1" parent="-LnWDCPz_Ko7V9wjN6Jq-5">
          <mxGeometry x="30" y="60" width="100" height="40" as="geometry" />
        </mxCell>
        <mxCell id="-LnWDCPz_Ko7V9wjN6Jq-8" value="Y" style="edgeStyle=orthogonalEdgeStyle;rounded=0;orthogonalLoop=1;jettySize=auto;html=1;entryX=0.5;entryY=0;entryDx=0;entryDy=0;startArrow=none;" edge="1" parent="-LnWDCPz_Ko7V9wjN6Jq-5" source="-LnWDCPz_Ko7V9wjN6Jq-15" target="-LnWDCPz_Ko7V9wjN6Jq-14">
          <mxGeometry x="-0.6" relative="1" as="geometry">
            <mxPoint x="80" y="220" as="targetPoint" />
            <mxPoint as="offset" />
          </mxGeometry>
        </mxCell>
        <mxCell id="-LnWDCPz_Ko7V9wjN6Jq-9" value="" style="edgeStyle=orthogonalEdgeStyle;rounded=0;orthogonalLoop=1;jettySize=auto;html=1;" edge="1" parent="-LnWDCPz_Ko7V9wjN6Jq-5" source="-LnWDCPz_Ko7V9wjN6Jq-10" target="-LnWDCPz_Ko7V9wjN6Jq-15">
          <mxGeometry relative="1" as="geometry" />
        </mxCell>
        <mxCell id="-LnWDCPz_Ko7V9wjN6Jq-10" value="抓拍图片，并获得图片地址" style="rounded=1;whiteSpace=wrap;html=1;shadow=0;labelBackgroundColor=none;strokeWidth=1;fontFamily=Verdana;fontSize=8;align=center;" vertex="1" parent="-LnWDCPz_Ko7V9wjN6Jq-5">
          <mxGeometry x="30" y="140" width="100" height="40" as="geometry" />
        </mxCell>
        <mxCell id="-LnWDCPz_Ko7V9wjN6Jq-11" value="" style="edgeStyle=orthogonalEdgeStyle;rounded=0;orthogonalLoop=1;jettySize=auto;html=1;entryX=0.5;entryY=0;entryDx=0;entryDy=0;exitX=0.5;exitY=1;exitDx=0;exitDy=0;" edge="1" parent="-LnWDCPz_Ko7V9wjN6Jq-5" source="-LnWDCPz_Ko7V9wjN6Jq-14" target="-LnWDCPz_Ko7V9wjN6Jq-13">
          <mxGeometry relative="1" as="geometry">
            <mxPoint x="80" y="260" as="sourcePoint" />
            <mxPoint x="80" y="290" as="targetPoint" />
          </mxGeometry>
        </mxCell>
        <mxCell id="-LnWDCPz_Ko7V9wjN6Jq-12" value="" style="edgeStyle=orthogonalEdgeStyle;rounded=0;orthogonalLoop=1;jettySize=auto;html=1;strokeColor=#000000;strokeWidth=1;entryX=0.5;entryY=0;entryDx=0;entryDy=0;" edge="1" parent="-LnWDCPz_Ko7V9wjN6Jq-5" source="-LnWDCPz_Ko7V9wjN6Jq-13" target="-LnWDCPz_Ko7V9wjN6Jq-22">
          <mxGeometry relative="1" as="geometry">
            <mxPoint x="80" y="444" as="targetPoint" />
          </mxGeometry>
        </mxCell>
        <mxCell id="-LnWDCPz_Ko7V9wjN6Jq-13" value="存入消息队列" style="rounded=1;whiteSpace=wrap;html=1;shadow=0;labelBackgroundColor=none;strokeWidth=1;fontFamily=Verdana;fontSize=8;align=center;" vertex="1" parent="-LnWDCPz_Ko7V9wjN6Jq-5">
          <mxGeometry x="20" y="374" width="120" height="40" as="geometry" />
        </mxCell>
        <mxCell id="-LnWDCPz_Ko7V9wjN6Jq-14" value="图片转成base64" style="rounded=1;whiteSpace=wrap;html=1;shadow=0;labelBackgroundColor=none;strokeWidth=1;fontFamily=Verdana;fontSize=8;align=center;" vertex="1" parent="-LnWDCPz_Ko7V9wjN6Jq-5">
          <mxGeometry x="20" y="294" width="120" height="40" as="geometry" />
        </mxCell>
        <mxCell id="-LnWDCPz_Ko7V9wjN6Jq-15" value="抓拍成功？" style="rhombus;whiteSpace=wrap;html=1;" vertex="1" parent="-LnWDCPz_Ko7V9wjN6Jq-5">
          <mxGeometry x="30" y="214" width="100" height="46" as="geometry" />
        </mxCell>
        <mxCell id="-LnWDCPz_Ko7V9wjN6Jq-16" value="N" style="edgeStyle=orthogonalEdgeStyle;rounded=0;orthogonalLoop=1;jettySize=auto;html=1;endArrow=classicThin;endFill=1;strokeColor=#000000;exitX=1;exitY=0.5;exitDx=0;exitDy=0;strokeWidth=1;entryX=1;entryY=0.5;entryDx=0;entryDy=0;" edge="1" parent="-LnWDCPz_Ko7V9wjN6Jq-5" source="-LnWDCPz_Ko7V9wjN6Jq-15" target="-LnWDCPz_Ko7V9wjN6Jq-10">
          <mxGeometry x="-0.7824" y="3" relative="1" as="geometry">
            <mxPoint x="150" y="360" as="sourcePoint" />
            <mxPoint x="86" y="124" as="targetPoint" />
            <Array as="points">
              <mxPoint x="166" y="237" />
              <mxPoint x="166" y="160" />
            </Array>
            <mxPoint as="offset" />
          </mxGeometry>
        </mxCell>
        <mxCell id="-LnWDCPz_Ko7V9wjN6Jq-21" value="Y" style="edgeStyle=orthogonalEdgeStyle;rounded=0;orthogonalLoop=1;jettySize=auto;html=1;strokeColor=#000000;strokeWidth=1;" edge="1" parent="-LnWDCPz_Ko7V9wjN6Jq-5" source="-LnWDCPz_Ko7V9wjN6Jq-22" target="-LnWDCPz_Ko7V9wjN6Jq-25">
          <mxGeometry x="-0.6279" relative="1" as="geometry">
            <mxPoint as="offset" />
          </mxGeometry>
        </mxCell>
        <mxCell id="-LnWDCPz_Ko7V9wjN6Jq-22" value="完成本次抓拍任务？" style="rhombus;whiteSpace=wrap;html=1;" vertex="1" parent="-LnWDCPz_Ko7V9wjN6Jq-5">
          <mxGeometry x="20" y="444" width="120" height="54" as="geometry" />
        </mxCell>
        <mxCell id="-LnWDCPz_Ko7V9wjN6Jq-25" value="迁移中已完成队列" style="rounded=1;whiteSpace=wrap;html=1;" vertex="1" parent="-LnWDCPz_Ko7V9wjN6Jq-5">
          <mxGeometry x="20" y="524" width="120" height="36" as="geometry" />
        </mxCell>
        <mxCell id="-LnWDCPz_Ko7V9wjN6Jq-26" value="最多重试3次" style="text;html=1;strokeColor=none;fillColor=none;align=center;verticalAlign=middle;whiteSpace=wrap;rounded=0;" vertex="1" parent="-LnWDCPz_Ko7V9wjN6Jq-5">
          <mxGeometry x="86" y="184" width="74" height="30" as="geometry" />
        </mxCell>
        <mxCell id="-LnWDCPz_Ko7V9wjN6Jq-53" value="N" style="edgeStyle=orthogonalEdgeStyle;rounded=0;orthogonalLoop=1;jettySize=auto;html=1;endArrow=classicThin;endFill=1;strokeColor=#000000;exitX=1;exitY=0.5;exitDx=0;exitDy=0;strokeWidth=1;entryX=1;entryY=0.5;entryDx=0;entryDy=0;" edge="1" parent="-LnWDCPz_Ko7V9wjN6Jq-5" source="-LnWDCPz_Ko7V9wjN6Jq-22" target="-LnWDCPz_Ko7V9wjN6Jq-10">
          <mxGeometry x="-0.7694" y="10" relative="1" as="geometry">
            <mxPoint x="140" y="247" as="sourcePoint" />
            <mxPoint x="86" y="134" as="targetPoint" />
            <Array as="points">
              <mxPoint x="166" y="471" />
              <mxPoint x="166" y="160" />
            </Array>
            <mxPoint as="offset" />
          </mxGeometry>
        </mxCell>
        <mxCell id="-LnWDCPz_Ko7V9wjN6Jq-30" value="Redis" style="swimlane;html=1;startSize=20;" vertex="1" parent="-LnWDCPz_Ko7V9wjN6Jq-1">
          <mxGeometry x="380" y="20" width="150" height="744" as="geometry" />
        </mxCell>
        <mxCell id="-LnWDCPz_Ko7V9wjN6Jq-46" value="抓拍中队列" style="rounded=1;whiteSpace=wrap;html=1;shadow=0;labelBackgroundColor=none;strokeWidth=1;fontFamily=Verdana;fontSize=8;align=center;" vertex="1" parent="-LnWDCPz_Ko7V9wjN6Jq-30">
          <mxGeometry x="36" y="374" width="74" height="70" as="geometry" />
        </mxCell>
        <mxCell id="-LnWDCPz_Ko7V9wjN6Jq-55" value="已完成队列" style="rounded=1;whiteSpace=wrap;html=1;" vertex="1" parent="-LnWDCPz_Ko7V9wjN6Jq-30">
          <mxGeometry x="30" y="522" width="80" height="60" as="geometry" />
        </mxCell>
        <mxCell id="-LnWDCPz_Ko7V9wjN6Jq-33" value="图片分析服务" style="swimlane;html=1;startSize=20;" vertex="1" parent="-LnWDCPz_Ko7V9wjN6Jq-1">
          <mxGeometry x="530" y="20" width="180" height="744" as="geometry" />
        </mxCell>
        <mxCell id="-LnWDCPz_Ko7V9wjN6Jq-64" value="" style="edgeStyle=orthogonalEdgeStyle;rounded=0;orthogonalLoop=1;jettySize=auto;html=1;strokeColor=#000000;strokeWidth=1;" edge="1" parent="-LnWDCPz_Ko7V9wjN6Jq-33" source="-LnWDCPz_Ko7V9wjN6Jq-52" target="-LnWDCPz_Ko7V9wjN6Jq-62">
          <mxGeometry relative="1" as="geometry" />
        </mxCell>
        <mxCell id="-LnWDCPz_Ko7V9wjN6Jq-52" value="监听已完成队列" style="rounded=1;whiteSpace=wrap;html=1;" vertex="1" parent="-LnWDCPz_Ko7V9wjN6Jq-33">
          <mxGeometry x="36" y="534" width="120" height="41" as="geometry" />
        </mxCell>
        <mxCell id="J_ld-7xPMJIZQAMWtx-8-5" value="" style="edgeStyle=orthogonalEdgeStyle;rounded=0;orthogonalLoop=1;jettySize=auto;html=1;strokeColor=#000000;strokeWidth=1;" edge="1" parent="-LnWDCPz_Ko7V9wjN6Jq-33" source="-LnWDCPz_Ko7V9wjN6Jq-62" target="J_ld-7xPMJIZQAMWtx-8-3">
          <mxGeometry relative="1" as="geometry" />
        </mxCell>
        <mxCell id="-LnWDCPz_Ko7V9wjN6Jq-62" value="获取图片列表" style="rounded=1;whiteSpace=wrap;html=1;" vertex="1" parent="-LnWDCPz_Ko7V9wjN6Jq-33">
          <mxGeometry x="36" y="614" width="120" height="36" as="geometry" />
        </mxCell>
        <mxCell id="J_ld-7xPMJIZQAMWtx-8-3" value="分析结果推送给上层" style="rounded=1;whiteSpace=wrap;html=1;" vertex="1" parent="-LnWDCPz_Ko7V9wjN6Jq-33">
          <mxGeometry x="36" y="684" width="120" height="36" as="geometry" />
        </mxCell>
        <mxCell id="-LnWDCPz_Ko7V9wjN6Jq-42" value="任务管理" style="swimlane;html=1;startSize=20;" vertex="1" parent="-LnWDCPz_Ko7V9wjN6Jq-1">
          <mxGeometry x="710" y="20" width="180" height="744" as="geometry" />
        </mxCell>
        <mxCell id="-LnWDCPz_Ko7V9wjN6Jq-31" value="启动抓拍任务" style="rounded=1;whiteSpace=wrap;html=1;shadow=0;labelBackgroundColor=none;strokeWidth=1;fontFamily=Verdana;fontSize=8;align=center;" vertex="1" parent="-LnWDCPz_Ko7V9wjN6Jq-42">
          <mxGeometry x="50" y="60" width="100" height="40" as="geometry" />
        </mxCell>
        <mxCell id="J_ld-7xPMJIZQAMWtx-8-4" value="接收分析结果" style="rounded=1;whiteSpace=wrap;html=1;shadow=0;labelBackgroundColor=none;strokeWidth=1;fontFamily=Verdana;fontSize=8;align=center;" vertex="1" parent="-LnWDCPz_Ko7V9wjN6Jq-42">
          <mxGeometry x="50" y="682" width="100" height="40" as="geometry" />
        </mxCell>
        <mxCell id="-LnWDCPz_Ko7V9wjN6Jq-44" value="Nebula" style="swimlane;html=1;startSize=20;" vertex="1" parent="-LnWDCPz_Ko7V9wjN6Jq-1">
          <mxGeometry x="890" y="20" width="180" height="744" as="geometry" />
        </mxCell>
        <mxCell id="-LnWDCPz_Ko7V9wjN6Jq-45" value="人体结构化解析接口" style="rounded=1;whiteSpace=wrap;html=1;shadow=0;labelBackgroundColor=none;strokeWidth=1;fontFamily=Verdana;fontSize=8;align=center;" vertex="1" parent="-LnWDCPz_Ko7V9wjN6Jq-44">
          <mxGeometry x="36" y="612" width="120" height="40" as="geometry" />
        </mxCell>
        <mxCell id="-LnWDCPz_Ko7V9wjN6Jq-59" value="" style="endArrow=classic;html=1;rounded=0;strokeColor=#000000;strokeWidth=1;exitX=0;exitY=0.75;exitDx=0;exitDy=0;entryX=1;entryY=0.25;entryDx=0;entryDy=0;" edge="1" parent="-LnWDCPz_Ko7V9wjN6Jq-1" source="-LnWDCPz_Ko7V9wjN6Jq-46" target="-LnWDCPz_Ko7V9wjN6Jq-25">
          <mxGeometry width="50" height="50" relative="1" as="geometry">
            <mxPoint x="376" y="424" as="sourcePoint" />
            <mxPoint x="426" y="374" as="targetPoint" />
            <Array as="points">
              <mxPoint x="346" y="447" />
              <mxPoint x="346" y="553" />
            </Array>
          </mxGeometry>
        </mxCell>
        <mxCell id="-LnWDCPz_Ko7V9wjN6Jq-61" value="" style="endArrow=classic;html=1;rounded=0;strokeColor=#000000;strokeWidth=1;entryX=0;entryY=0.5;entryDx=0;entryDy=0;exitX=1;exitY=0.75;exitDx=0;exitDy=0;" edge="1" parent="-LnWDCPz_Ko7V9wjN6Jq-1" source="-LnWDCPz_Ko7V9wjN6Jq-25" target="-LnWDCPz_Ko7V9wjN6Jq-55">
          <mxGeometry width="50" height="50" relative="1" as="geometry">
            <mxPoint x="376" y="424" as="sourcePoint" />
            <mxPoint x="426" y="374" as="targetPoint" />
          </mxGeometry>
        </mxCell>
        <mxCell id="-LnWDCPz_Ko7V9wjN6Jq-63" value="" style="endArrow=classic;html=1;rounded=0;strokeColor=#000000;strokeWidth=1;exitX=1;exitY=0.5;exitDx=0;exitDy=0;" edge="1" parent="-LnWDCPz_Ko7V9wjN6Jq-1" source="-LnWDCPz_Ko7V9wjN6Jq-55" target="-LnWDCPz_Ko7V9wjN6Jq-52">
          <mxGeometry width="50" height="50" relative="1" as="geometry">
            <mxPoint x="496" y="444" as="sourcePoint" />
            <mxPoint x="546" y="394" as="targetPoint" />
          </mxGeometry>
        </mxCell>
        <mxCell id="-LnWDCPz_Ko7V9wjN6Jq-65" value="逐张解析图片结构化" style="endArrow=classic;html=1;rounded=0;strokeColor=#000000;strokeWidth=1;exitX=1;exitY=0.25;exitDx=0;exitDy=0;entryX=0;entryY=0.25;entryDx=0;entryDy=0;" edge="1" parent="-LnWDCPz_Ko7V9wjN6Jq-1" source="-LnWDCPz_Ko7V9wjN6Jq-62" target="-LnWDCPz_Ko7V9wjN6Jq-45">
          <mxGeometry x="-0.083" y="9" width="50" height="50" relative="1" as="geometry">
            <mxPoint x="500" y="582" as="sourcePoint" />
            <mxPoint x="576" y="583.3970588235295" as="targetPoint" />
            <mxPoint as="offset" />
          </mxGeometry>
        </mxCell>
        <mxCell id="J_ld-7xPMJIZQAMWtx-8-1" value="" style="endArrow=classic;html=1;rounded=0;strokeColor=#000000;strokeWidth=1;exitX=0;exitY=0.75;exitDx=0;exitDy=0;entryX=1;entryY=0.75;entryDx=0;entryDy=0;dashed=1;" edge="1" parent="-LnWDCPz_Ko7V9wjN6Jq-1" source="-LnWDCPz_Ko7V9wjN6Jq-45" target="-LnWDCPz_Ko7V9wjN6Jq-62">
          <mxGeometry width="50" height="50" relative="1" as="geometry">
            <mxPoint x="710" y="424" as="sourcePoint" />
            <mxPoint x="300" y="424" as="targetPoint" />
          </mxGeometry>
        </mxCell>
        <mxCell id="J_ld-7xPMJIZQAMWtx-8-2" value="返回人体结构化解析结果" style="edgeLabel;html=1;align=center;verticalAlign=middle;resizable=0;points=[];" vertex="1" connectable="0" parent="J_ld-7xPMJIZQAMWtx-8-1">
          <mxGeometry x="-0.1538" y="1" relative="1" as="geometry">
            <mxPoint x="-5" y="9" as="offset" />
          </mxGeometry>
        </mxCell>
        <mxCell id="J_ld-7xPMJIZQAMWtx-8-6" value="" style="edgeStyle=orthogonalEdgeStyle;rounded=0;orthogonalLoop=1;jettySize=auto;html=1;strokeColor=#000000;strokeWidth=1;" edge="1" parent="-LnWDCPz_Ko7V9wjN6Jq-1" source="J_ld-7xPMJIZQAMWtx-8-3" target="J_ld-7xPMJIZQAMWtx-8-4">
          <mxGeometry relative="1" as="geometry" />
        </mxCell>
        <mxCell id="-LnWDCPz_Ko7V9wjN6Jq-48" value="" style="endArrow=classic;html=1;rounded=0;strokeColor=#000000;strokeWidth=1;exitX=1;exitY=0.5;exitDx=0;exitDy=0;" edge="1" parent="1">
          <mxGeometry width="50" height="50" relative="1" as="geometry">
            <mxPoint x="314" y="470" as="sourcePoint" />
            <mxPoint x="430" y="470" as="targetPoint" />
          </mxGeometry>
        </mxCell>
        <mxCell id="-LnWDCPz_Ko7V9wjN6Jq-49" value="任务信息，&lt;br&gt;图片base64，" style="edgeLabel;html=1;align=center;verticalAlign=middle;resizable=0;points=[];" vertex="1" connectable="0" parent="-LnWDCPz_Ko7V9wjN6Jq-48">
          <mxGeometry x="-0.3697" relative="1" as="geometry">
            <mxPoint x="37" y="-22" as="offset" />
          </mxGeometry>
        </mxCell>
      </root>
    </mxGraphModel>
  </diagram>
</mxfile>
